<mxfile host="Electron" modified="2024-07-02T21:22:51.791Z" agent="Mozilla/5.0 (Macintosh; Intel Mac OS X 10_15_7) AppleWebKit/537.36 (KHTML, like Gecko) draw.io/24.6.1 Chrome/124.0.6367.207 Electron/30.0.6 Safari/537.36" etag="nqYTOll-s6w8w8Fs6SX4" version="24.6.1" type="device">
  <diagram name="PÃ¡gina-1" id="_PqZCD2IPik3DV_hjxV3">
    <mxGraphModel dx="1897" dy="823" grid="1" gridSize="10" guides="1" tooltips="1" connect="1" arrows="1" fold="1" page="1" pageScale="1" pageWidth="827" pageHeight="1169" math="0" shadow="0">
      <root>
        <mxCell id="0" />
        <mxCell id="1" parent="0" />
        <mxCell id="vwu_d-jKQCP9L85hydyf-1" value="" style="rounded=0;whiteSpace=wrap;html=1;strokeColor=#C9C9C9;" parent="1" vertex="1">
          <mxGeometry x="-800" y="20" width="690" height="520" as="geometry" />
        </mxCell>
        <mxCell id="tf7IQ7AN6h5D22W9n6xX-43" style="edgeStyle=orthogonalEdgeStyle;rounded=0;orthogonalLoop=1;jettySize=auto;html=1;exitX=1;exitY=0.5;exitDx=0;exitDy=0;entryX=0.5;entryY=1;entryDx=0;entryDy=0;" parent="1" source="tf7IQ7AN6h5D22W9n6xX-1" target="tf7IQ7AN6h5D22W9n6xX-47" edge="1">
          <mxGeometry relative="1" as="geometry">
            <mxPoint x="-487" y="327" as="targetPoint" />
            <Array as="points">
              <mxPoint x="-440" y="430" />
            </Array>
          </mxGeometry>
        </mxCell>
        <mxCell id="tf7IQ7AN6h5D22W9n6xX-45" value="Results top-k" style="edgeLabel;html=1;align=center;verticalAlign=middle;resizable=0;points=[];" parent="tf7IQ7AN6h5D22W9n6xX-43" vertex="1" connectable="0">
          <mxGeometry x="0.3012" relative="1" as="geometry">
            <mxPoint y="-8" as="offset" />
          </mxGeometry>
        </mxCell>
        <mxCell id="tf7IQ7AN6h5D22W9n6xX-1" value="Chroma DB" style="shape=image;verticalLabelPosition=bottom;labelBackgroundColor=default;verticalAlign=top;aspect=fixed;imageAspect=0;image=data:image/png,iVBORw0KGgoAAAANSUhEUgAAAMsAAACHCAYAAAC4Ya0kAAAABGdBTUEAALGPC/xhBQAAACBjSFJNAAB6JgAAgIQAAPoAAACA6AAAdTAAAOpgAAA6mAAAF3CculE8AAAAhGVYSWZNTQAqAAAACAAFARIAAwAAAAEAAQAAARoABQAAAAEAAABKARsABQAAAAEAAABSASgAAwAAAAEAAgAAh2kABAAAAAEAAABaAAAAAAAAAEgAAAABAAAASAAAAAEAA6ABAAMAAAABAAEAAKACAAQAAAABAAAAy6ADAAQAAAABAAAAhwAAAADhWMSKAAAACXBIWXMAAAsTAAALEwEAmpwYAAABWWlUWHRYTUw6Y29tLmFkb2JlLnhtcAAAAAAAPHg6eG1wbWV0YSB4bWxuczp4PSJhZG9iZTpuczptZXRhLyIgeDp4bXB0az0iWE1QIENvcmUgNi4wLjAiPgogICA8cmRmOlJERiB4bWxuczpyZGY9Imh0dHA6Ly93d3cudzMub3JnLzE5OTkvMDIvMjItcmRmLXN5bnRheC1ucyMiPgogICAgICA8cmRmOkRlc2NyaXB0aW9uIHJkZjphYm91dD0iIgogICAgICAgICAgICB4bWxuczp0aWZmPSJodHRwOi8vbnMuYWRvYmUuY29tL3RpZmYvMS4wLyI+CiAgICAgICAgIDx0aWZmOk9yaWVudGF0aW9uPjE8L3RpZmY6T3JpZW50YXRpb24+CiAgICAgIDwvcmRmOkRlc2NyaXB0aW9uPgogICA8L3JkZjpSREY+CjwveDp4bXBtZXRhPgoZXuEHAAAP0UlEQVR4Ae1dTYwcxRV+1bMhHIKYUyA5xL0BmQPBHmMlN8JYAuUC8SIlhyRIXpQEcsOIJDfi2ZxjgW8kQWIscmd9hUgMl0hRFBgHkHII2fYxEuAxPwbsna58r39meqZnZrtn+79eWeOqrq6un+/Vt++9qpoeIgmCgCAgCAgCgoAgIAgIAiUgoEpos7AmOz1t0z51SFHbUmQjPqIJsaY2OsEfZOE6HkYoN0L2CAVGKDNSmq5oTY6LD22QM+ypYfyx6uboX3VtunlLh7RrU6tlE7m3AwdgoZBGUBp4KA8TegRDP/a5l43/cKHw4VgzHg656op3bVlDxEO1OeT7jQ+YB80IIEabxrTVUtRxFR3H5O5gZO08RwdCDUHCoXbpstuiQVUIpH/5cIfGukstdRxkYBz4kzzMkiXJcyMUGpLWl0lvDKjlEchJ8mCdytSWLB459qnbsqjrEp3GQOwKAM9/eQfk0qWAPE4RffK0xo2NLWpZD2LCdicaYt3G05NlQUvQvEoPady6BPIMmqB9akUWJog1pm1tgRwFaI4FMyBVFmse9PMiiLMLreOkeviAwh5B9m85A9OoC3Lgk2HIhCxz/dG0C7MPxGnt1pU4tSALSNLFpDtXB4LMTZHJpYbGUa5HHDbXnMmNFAm93W2TtbFNljqdOUGi/ciDLNH6FfWJWhdBmkE0u+rpypLF0yIuPQ0Az+LTrjqQafqnMFnGinaSkkb/4qEuqdYWnHNoksAJT9Ng2rJ5k2XaHywW0A60zQDEcabZ1UxVjixNJsn8FGBtgw+TZjB/j689kpA6l6sWWdRwcWSZtu5rm50qk6YyZDGJJNMZ4qfmSVMaScKOlUGWsO0Kk6Z0sphMknB+hPH3v/x7//kPn7ML1yRhB8K4TLKEfVCqR2SxX+OEWWXHpZLl5I5+Wo8JoDTLJ0kr1Nv0Z/TUx6/QTz57Ne2j+ZSvAln8kXk+jbr7nX4+A01XaylkgTaxsbL1Mj7ddN1tXulHr79Gz157kZgwlQnVIUsACfZr1MZjZWsZq2gBsTaxXHrbdKJ8c/w/+tMHv6He6Hy1iFL0hEjUHk4h6PGe3juGxY7yQmGaRbTJVMjdL/5Gvat/qC5JKqdZptgh5WAZ/VQZWqYQzQJtcka0CXnk+DVMrvMf7VSXKDPzspIXOPw5flv/577tonuXO1nuP6efhxPfx8AatbGYVlCh2VUZJz7tAKpVHicZ6OWizbLczDBeEoZf8qrpvgnPsZM3LtP5D2ukTapths3Rlg9sWoU4/7loFvZPxOzyZfrTT1+FI/9bMbvmpnh2l5qd/zf0XsfOrs7FNWVOFhClA6K8geZy7/ziIVUn96lP/kLPfvxidTrU3J6wHwPC3NvJc4iZkkWIMhUVE+XJT16ZZkgqbwRAGCtXwmRGlghRjHbkeUYIUfLmxdL623kSJhOyCFGmwhOiTLEoKZUbYQ5NFiHKdEoIUaZYlJzKhTCHIguIwqtefPpPTC/xUUrmR6z5gDDZrZKtTZaAKLLqBRnx8RVx5mOTtQoZIEx2y8prkwUvjtgFGnYVECmzD7wzz+e8JFQWAaySuZl892EtsvARFrzy53hl4SmoY0yUP+LkcKWO1xc09no1ozt6777nD9vn1GThI/Z4pc3ZwzbchOfZ9GLCSKgBApiz+v1jh5q3qcjCfkrwzcYaoJNvF3nl69Hrr+fbiNSeLQJKnzvMsZhUZAmOsRi/8sXaRBz6bOdxQbXB4V/ff0lMlvt/p/lbanZBg6p0M+ynSKgrAvBf3j/WW6f3icjC5hcqX6uBdTpV5WfY/BI/pcoSStA3zxxLf+gyEVkC8ytBL5pdRMyvBslXW6lXxw4ky/3P6W1AZDcIprWHIn7K2tBV8cFu2tWxlWTxzC9Fpb5Royoo8yuLZPWrKtLIqB/+6ljiBauVZIH5dQbdsjPqWq2reRK+ioTGIdAm102897KULIFTn7iixsEYGRBrFXHqI4A0KanwVtS9TiLtspQsLVdeqxrOCdEqIRKNjBNrl4Vk8XbqyTPBGolOmkGJVkmDVk3LJtQuC8kS+Co1HXm23Ratki2eFa0tkXZZSBYMaLuigyq0Wydv/Et8lUIRL7GxBNolRhbZV5kKjN/5JcEYBPDT8OOtVaONkQW/BMzLxcYHXv3ib0BKMAiBA+b+DFnYsZfXrfqTo/u5EMUgmoRD7a46wj9DFjj2sq8SwCYv8A7nj2Gx624vG/EMWVDo9LKCJuUfvflfcexNEnh0rEovdUMmZIEJ1sEzdvQ5U9M/xI69BGMRsGGKMRdiYUIWJLqxu4Zm8E9ESDAYAddduCo2IYvWYoLx9OBVMDbDJBiMgNIPLhq9RxaYYPzDQ91FBUzLO/mlaBXTZL5gvLwq1p7PDzXLQhttvrAJ17xrL0EQINqPccIjC5aMuwKPj8A9N98XKAQBIteK+S0eWbSihTaaaZjd5n4q/oppQl82XqWPz9/yyAJ/JaZy5guacH10Xxx7E+SccIwxTljs3ONh/hgf7rkhJpjxk2AKQHv+6AtrlhiDpuXNSslXh82S94GjHY9nuGGBLTMZB1bQ4AJHxblvsHTXGJpSdvQpi1w54hIC8g15I34IhcQ+AnYUCEvJebAJHmKGTaCQBCNg6dujQFiuopmM6E2T0kIUk6SdcKx61uqyLC0rYQzd19zPEiIoxQxCwI6OFVwRsjAgt+lPo7hIWhCIIcBLx3YsVzIEAUGAEZjZf/R28AUXaJaxaBaZBzEEhCwxSJAhZtgiVCQvioBoligakhYEViAgZFkBjrG3bsWyj4QYAkyWUSxXMsxG4Kuu2eNfMnohyxJgJFsQAAJOFAUxw6JoSNpH4FbRLD4QasbqsvAtSUfmiCAwg4D4LAEcepYspOnKDFByIQjcPhYMfASuRYHgU8cz7InelLSBCAhRpkLXyple4BAy/s1kRG9K2kAEhCxRoTvRC0vtC1migBifvvOm8RBMALDc4SSNhDXeoJmM6E1JG4iAaJaI0DdmuGENe55dJn5LBCKjk18XzRLIf6Q2hzO88PZZlBLtYjRBooO/cz96ZXJ6RqswEB5Z8AZ9eRu2ydMiHPsd0Cpy1MVHQ6s3Q1jC2COLa9FumCGxwQgwWST4CFjuYB6K8LhLTOXMF5RrAxD41g0DBpl0iLPOPT/lkQVO/gh+yyBpNVKuoQgcEbIEkh3MO/ecH2oWgt8Ss9EaOiVkWIsQYBNMlo19ZLS6tAiiCVnEb1kEj0F5olWmwraswfRimpqQBaYY+y3O9JakjELgvutGDXf5YJUDE2yhDz8hS/DwxeWVyJ3GIsDm1x2yv+LJV9NCE4zvzZAFpljfe0D+MwuB78nbOCcCt6wXJum5xAxZ+OiLrIrNIWTC5dEvTBhlkjHyKpizrOAMWbjQWJGYYsvQamI+E0VWwXzJuqvnfowseGoXn1ET54WMaQEC3xUTzEcFVtXd7/QXIDTJipGFNyhx98KkhCSaiwBrFFky9uWr3QMtqhhZ+Ek4+uzkiHbxYWzu/w980tyxpR2ZtdE/6JGFZBHtchBsDbjPWuXY5w0YSAZDUNRf5diHLSwkC98U7RJC1NBYtEogWHY7WjtJpLyULKJdksBX0zKiVaaC0+6FJFqFH1hKFr4p2oVRaGAQrRIIFV+pT+CrhDNgJVlYu4AwiVRUWKHEFUfgGM6Aia/iC8nVO0m1Cj+wkixcAIR5QXb1GYmGhAfkF858SR68rzIv8QPJwg9gV/+Z+QfluoYIsPklu/W+4JR1Kq0EE5EF2mWIisUcS4tulcozSUSr+BLR6cyvUIyJyMKF3/q96skrk0LYahg//mENO51Hl2F+3fVub52aE5OFK4c59hgi2dlfB+kynxHzK0AfeyprmF+h6FKRBeaYI6tjIXQ1iXn1S8wvX1h6nGr1a17CqcjCD/PqGCI5aDmPZBWvxU+ZSkXrC+qu93jurh1Sk4Vbgv9yVvyXtTEv5kH+qTv2U2T1i/CDXZfhp5w9LPBrkYUb9fwX+Ym9w+Kf3/OPXBOieOjyLn1rKwug1yaL578o4rXqURYdkToyRIAdevmqMAAFUeDQp9mlXyWFtcnClQYOvxBmFcJF32OiiEMP1L2Vr8eyIgqL8VBk4QpAmCFWyIQwDEbZQYgSSMBfIgZRhlmK5NBk4c4IYbIUyZp1CVEC4PIhCleeCVm4IiEMo1BSEKIEwOdHFG4gM7JwZRPCyCoZw1FMEKIEOE+c+UxNr6gQMyULV+wRhlfJhDBRnPNJP/yxOPMesvkThZvJnCxcKQjjuCCMbFwyGjkE3nD8GTYc5Z1fDO4Ay8Mnslz1WiaxXMjCjTFh/rmjTiApR/uXob9OPv+Oys8/kPd9MXZ8hOXb7/A+SiF7fbmRJZwHfLQfS8tP4LqQAYXtNjLmF3g//pHszBM78u4TWRxhSTNPcicLdwZapg/CnBA/Jo1oImXZ7PrRVaKH4KPIrwkHZtd7/QhChSQLIQuPhM2yt3bUJpJilqURLf8oKptdxh9fgTbR7jOB2eWkgTCrsoWRJexwYJZtivMfIrIkZm3yCCxXOTnMAPna5JBH7JcgnTh7I3HJDAuylkF1Jzo9vW1pOocj1HaG1de/KvZN+HyX8SYXaxN8YatkkoQTqnDNEjbMsefL+CeXxTTzgNED+vHVi+KbMEn0DpaEN6tCFBZPqWThDni+jL9itqlp9Y/JcPlmBpCE3FPqpddPqR/8Y5uU5k1d5JkWoiR5t1fUknBSlFXSgkWVg2lmK5d66NiZotrkdh69/hr1RueLbBJtMUnwWp6X/oo4HvTed7pEis1UxE0OnvN+Aa9SfaFqBImiXjmyhJ1j0iDdLcqnKZAs2CNQF2GL7y4jSYhBGOu9jo3yPVwX+gckbD+/uB4kCcdfWbKEHeQYxOlC22znqW3yJwu0iKsvkbvfV/3BWhu0HmnG4y61QJraahsQhPQQpiY2Et4dROVc9XQtyBKCCNK0kd6CtjmNybIV5mcR50MWNrPUm7Rxo69eHDhZ9DOswyOO627Bt4G20Z0wv5pxQBCtLpFl9atsaq3Cr1ZkiQ4kIA5rHJ4wx5WmQ02YjMgCEwuO+dh9k27Z382aINHxR9MRjYM/IqoL8vAflZIDtge0C3KoAX4saFBXgkRBrC1ZooPgdODjdCyXunpKnsSTZj2ysDlBQxrry9RSA/Xn14fz/SrjWu/d2yG31YWpgz8g6nj+mifUHMBBqyG1WrtNIMe87BpDlvmB8XWgfTBhiEnUxsQ+oolsXLdhxrUxeCYTf+ZXw7DOHxz8VNrBcw5W2a/ReIw0rr8yHhalNbhvWQSPQGTZ5Coby9Q2/uIfQb3AQYUYIF6kkbwNZO4CtKYeIXZQxxXsgzjwnXB9c6g2/+1wAQmCgCAgCAgCgoAgIAgIAoKAICAICALlIfB/7TohRhROcAAAAAAASUVORK5CYII=;" parent="1" vertex="1">
          <mxGeometry x="-605" y="397" width="100" height="66.5" as="geometry" />
        </mxCell>
        <mxCell id="tf7IQ7AN6h5D22W9n6xX-53" style="edgeStyle=orthogonalEdgeStyle;rounded=0;orthogonalLoop=1;jettySize=auto;html=1;entryX=0.5;entryY=1;entryDx=0;entryDy=0;" parent="1" source="tf7IQ7AN6h5D22W9n6xX-2" target="tf7IQ7AN6h5D22W9n6xX-49" edge="1">
          <mxGeometry relative="1" as="geometry" />
        </mxCell>
        <mxCell id="tf7IQ7AN6h5D22W9n6xX-58" value="LLM processing" style="edgeLabel;html=1;align=center;verticalAlign=middle;resizable=0;points=[];" parent="tf7IQ7AN6h5D22W9n6xX-53" vertex="1" connectable="0">
          <mxGeometry x="0.4286" y="2" relative="1" as="geometry">
            <mxPoint as="offset" />
          </mxGeometry>
        </mxCell>
        <mxCell id="tf7IQ7AN6h5D22W9n6xX-2" value="Ollama" style="shape=image;verticalLabelPosition=bottom;labelBackgroundColor=default;verticalAlign=top;aspect=fixed;imageAspect=0;image=data:image/png,iVBORw0KGgoAAAANSUhEUgAAASwAAAEsCAYAAAB5fY51AAAACXBIWXMAAAsTAAALEwEAmpwYAAAE9GlUWHRYTUw6Y29tLmFkb2JlLnhtcAAAAAAAPD94cGFja2V0IGJlZ2luPSLvu78iIGlkPSJXNU0wTXBDZWhpSHpyZVN6TlRjemtjOWQiPz4gPHg6eG1wbWV0YSB4bWxuczp4PSJhZG9iZTpuczptZXRhLyIgeDp4bXB0az0iQWRvYmUgWE1QIENvcmUgOS4xLWMwMDIgNzkuYTZhNjM5NjhhLCAyMDI0LzAzLzA2LTExOjUyOjA1ICAgICAgICAiPiA8cmRmOlJERiB4bWxuczpyZGY9Imh0dHA6Ly93d3cudzMub3JnLzE5OTkvMDIvMjItcmRmLXN5bnRheC1ucyMiPiA8cmRmOkRlc2NyaXB0aW9uIHJkZjphYm91dD0iIiB4bWxuczp4bXA9Imh0dHA6Ly9ucy5hZG9iZS5jb20veGFwLzEuMC8iIHhtbG5zOmRjPSJodHRwOi8vcHVybC5vcmcvZGMvZWxlbWVudHMvMS4xLyIgeG1sbnM6cGhvdG9zaG9wPSJodHRwOi8vbnMuYWRvYmUuY29tL3Bob3Rvc2hvcC8xLjAvIiB4bWxuczp4bXBNTT0iaHR0cDovL25zLmFkb2JlLmNvbS94YXAvMS4wL21tLyIgeG1sbnM6c3RFdnQ9Imh0dHA6Ly9ucy5hZG9iZS5jb20veGFwLzEuMC9zVHlwZS9SZXNvdXJjZUV2ZW50IyIgeG1wOkNyZWF0b3JUb29sPSJBZG9iZSBQaG90b3Nob3AgMjUuOSAoTWFjaW50b3NoKSIgeG1wOkNyZWF0ZURhdGU9IjIwMjQtMDYtMjZUMTI6NTA6MjgtMDM6MDAiIHhtcDpNb2RpZnlEYXRlPSIyMDI0LTA2LTI2VDEyOjUzOjQ3LTAzOjAwIiB4bXA6TWV0YWRhdGFEYXRlPSIyMDI0LTA2LTI2VDEyOjUzOjQ3LTAzOjAwIiBkYzpmb3JtYXQ9ImltYWdlL3BuZyIgcGhvdG9zaG9wOkNvbG9yTW9kZT0iMyIgeG1wTU06SW5zdGFuY2VJRD0ieG1wLmlpZDowOTMwOTNlZC04M2I5LTRjMWYtODM1OC1hMWE0NWViNTBlNTAiIHhtcE1NOkRvY3VtZW50SUQ9InhtcC5kaWQ6MDkzMDkzZWQtODNiOS00YzFmLTgzNTgtYTFhNDVlYjUwZTUwIiB4bXBNTTpPcmlnaW5hbERvY3VtZW50SUQ9InhtcC5kaWQ6MDkzMDkzZWQtODNiOS00YzFmLTgzNTgtYTFhNDVlYjUwZTUwIj4gPHhtcE1NOkhpc3Rvcnk+IDxyZGY6U2VxPiA8cmRmOmxpIHN0RXZ0OmFjdGlvbj0iY3JlYXRlZCIgc3RFdnQ6aW5zdGFuY2VJRD0ieG1wLmlpZDowOTMwOTNlZC04M2I5LTRjMWYtODM1OC1hMWE0NWViNTBlNTAiIHN0RXZ0OndoZW49IjIwMjQtMDYtMjZUMTI6NTA6MjgtMDM6MDAiIHN0RXZ0OnNvZnR3YXJlQWdlbnQ9IkFkb2JlIFBob3Rvc2hvcCAyNS45IChNYWNpbnRvc2gpIi8+IDwvcmRmOlNlcT4gPC94bXBNTTpIaXN0b3J5PiA8L3JkZjpEZXNjcmlwdGlvbj4gPC9yZGY6UkRGPiA8L3g6eG1wbWV0YT4gPD94cGFja2V0IGVuZD0iciI/PimH0t0AAG8BSURBVHic7Z13fBTF+8c/s7tX0ntvJCSh916lSlGkqYiggBXEhg0Ue0FERb8WFP0poGJBpYkU6b23AKEmgZDe+/Wd3x93c0kgkOzlUm/fr9eJudtn9rm9nWefeWbmeQilFIQQ2JOJEyfir7/+AgDs2bMHGo0GI0aMAAC88sorSEhIwO+//w6FQoEvvvgCubm5+O+//5CZmYmPP/4YFy9exGuvvYa169YhIjwcycnJGDt2LCgFwFSlln9Jhf+vACWWQ6n5YwKAUoDjzP9SAIRATSkCQeEDAh9C4ALAR6TwIhQuhMCNAs4AnACoCKAEoKKAAoAKgAjz/6tv0EK0fK60/L+tUEvbQtXfssrjVRadanI8019lq4L1jBaACeV3we0gAAwAdBKOFy3nEGsoU107Fe9Ypo8WAA9AS8zfxQBAS816aglQSi0vjqAQQB4oigDkUyCbEGSDotB6T99GUUoB1rWp5b/EcjQhQEFBIf77bwvuvfc+gBAQS5/ZuXMnricnY/DQoVi2bBnUKhUGDRqEnj17Ii8vD0ePHoVCocD69evx5ptvwtvbG7NmzcKGDRugVqtx55134uuvv4aXlxd27NiBLl264NChQ/j000+tdsEWKKUQbJZuOrgBaAsgFEBHShFMgQgAYZTCG4A3iPk6UEsXJ5b/3Njja2IBZOoU94ZWwJ5UdT9Veg7ffAClFAUACgCkUSARQDqACwASLK/UOlC10dDcDBYPoDOA3qDoSIEeAMIA+FKgSiMkI9OEIAC8LK9IAP2ASve0FkASgJMAzoDgIIDTMBu4ZkFzMFhRAIYCGEqBXgBaNKw6MjINhhpAG8sLAECBPADHAOwAsN3y/02Wpmqw2gAYQ4GxoOjb0MrIyDRivAHcaX4RUOAcgC0E+EsUxYOlpaUNrJ40GrXBMplMMBgMKC4uBszB4QdA8RAFhjewajIyTZV2ANpRihdcXF2PDx02bBUh5HcKJDe0YjWBa2gFbsRkMkGhUAAAqCjCy8srtH///m9QissU+Ek2VjIytYcCUCkV3cLDwj6iwBUAPwDoDgBarRZ6vR4c1+jMQ+PwsAghIIRAp9PBaDTi8uXLKCkpiR4xYsRzLq5uj3MEKlGOlsvI2JUKfUoB4BFK8QghWO3n5/dxTnb2oeLiYnAcB1EU7b70yVYa3GBRSsHzHJKSkqDX69G7d+/QyKiolynFbDc3Nx6odGFlZGTqEJFiQvfu3SeEhoX/CSp+npKSciAoMLDReFsNbrBKS0tx6tQpvP3226Rr126vR0VFzY2KinIBZEMlI9MQUACBAf73Abjvmaef/j+tVvf25cuXUrt16wae50GrWCBWXzSIwaKUQhDMp+7RowdCQkLumjZt2icAWstGSkamYWE7QQCgXbt2jwG439vH+7XCwoKvCwuLwPN8g+lW7waL53kYjUZkZWVBo9G4DR8+/H8AZgDyok4ZmcaGSAGOwD2yRYuv0tLTJ2ZkZDyblZV1tmXLlgBQ795WvRuslOvX4eLijLKysuGeXl7/ByAckId/MjKNFdY3g4OCBgcHBZ0pLi6ec/r06c+Li+rf26oXg2UwGKz/37Z9e/Ts2fODyMjI1wDZUMnINBVEy2bqoUOHftYyOnpA165dp3t6ehYDgCjWZo9/zalzgyWKIsLCwrB7z25cuXzFd968eX8QYIhsqGRkmh4sA0SLiIgJLSIiOmu02knx584do5RCq9VCparbxB91Plfp7u6OU6dOoqxU063/gAEnCTBEtlUyMk0XkVpHRlEGg/GoUql8qEOH9jAYDHU+RKwTD8vJycn6/wUFBSCEv2fUqJFrAHCyZyUj0zwQKeDu5ooOHTr85OfnF8bzwoJ3330HV69erbNz1onBio+Px8WLF3HwwAFERcc8/vDDD30HyPEqGZnmBuvTgYGBH0yYMME3Li7uhYcffhgAYDQa7X6+OhkSnjlzBqtWrUJIaNisgQP6y8ZKRqaZI1IgMDBwzptvvrXE3d0Nly5dgouLi93PY3cPKzQkBGPuuQejRo16unv37l9SVJk5UUZGpplBAQQHB80qLCx0/2/LlqkqldLuW3rsZrDCwsKwdu1a/PPPPxg+YuST3bt3/xKQjZWMjKPAZhDbtGk9JTsnu2jIkCFPhYeHAzCvFrDHIlO7GCxXV1fExMQgLCwUjz72+AOhIcHfyp6VjIzjwdZqDRwwYBaAkr/+/uuVOwbeAZVKZRdvyy7+Wt++fXH33Xdj8eLPBvj5+v4GyMZKRsZRYX1/4IABL7du3Xb2r7+uBKUUSqWy1m3X2sOKiIjAzp07MGXqQ6Fz5szZCsgBdhkZR4d5WgP69/tqz57dV5KTk7cEBARYP1epVNZEnVIQAKBVq1Y2KaXVavH222/jxImTZPz4cdsBOdGejIyMGRbTmjVr1j8vvfRStJura/KlS5dQUlKCq1evQqfTSW6T1CYQ9sknn+DAgQNY/Nnnv7eICJ8kGysZGZkb4Qhw4MCBC/Pnz2/z7LPPYvz48RgyZAji4+MltZORkWH7kPDs2bM4duwY+vTt92iLiPBJcsxKRkamKkQK9O3bt/Xrr7/x/bPPPvN4dHQ0rly5gszMTMlt2eRh6XQ6jB8/Hu3atw/7eNGiZKaUjIyMzK3gCPDe++/fnZOd/a+3tzdOnz4tSX716tVmg3Xw4MEaC1FKkZGejjfefAvbt+84ERjo30U2VjIyMtXBEUCn0xc+9dSs4CeffKKsZ89ektsglFLJFTFmz56Nu+6+e86okSMXy8ZKRkampnAEOHT4yKoVy5dNat++PV5//XUUFRXVSNZkMkmLYfXp0wcREREoKSkJHjVy5GKbNJaRkXFYKIDevXref+rkqe/nvvLStr79+sHDw6PGG6UJpRQbN26s9sAtW7ZAFEVcOH8eCxYuXN+je/cxsnclIyMjFY4A+QWF14cMHhR+//3349VXX62xrAAAo0ePrvbA3bt3Y9GiRXj22ed69+jefYxsq2RkZGxBpICXp0fYa/PnP//+e+99rlKpcPjw4WoXkv7yyy81myU8f/48vv/+e/z++++IO3P2tK+Pd0fZu5KRkbEVcwBeVzJ69OjA5OTk0itXrlQrQyk1e1geHh63PCg8PBwfffQRtmzejIcefni8r493R3nNlYyMTG0QKaBSqVxfePGld197dd6LnTp1QmlpKVxdXW8rJwC47UE8zyMnJwe8IGD27KcXAnL9QBkZGftw1+hRc954ff7H7dq1zfj551+qPV4AgISEhCo/NJlMSEtLQ2xsLF5+5ZV7w8NCY2VjJSMjYw8sRVrJtOnTn/lo4cL5e/bswcCBA28rQyileOqpp255QGZWFtatXYuU1NTjgQEBXeXYlYyMjL3gzEtAC1q3bh0aFRVVOmLECJw8ebLKtaHLli27/cJRf39/aDUa3D1mTJ+VK1cekJPyycjI2BuOAJ9+unj2t99+s6R9+/ZYu3ZtlcdZg+63YurUqVi7di2enPXU02YB+ysrIyMj8+ijjz7z0ksvLunatSsSEhJQXFxc5XG39LDGjBkDg8GAvLw838OHD2cA4OXhoIyMjL0hBCAAJk+ePGDv3r37nnnmGcydO7fKYwUA+Prrryu9mZeXh+TkZKxbtw4vvPjiZMjGSkZGpo5gif4mT35w+u+//77v4MGDMBgMVS4kFQBzTvZyYQqVSoUnn3wSBQX5mDpl6uT6U11GRsZRGT161HhPL69nYmJiNGVlZdiwYUOlz6dMmVL1kLBNmzZQq9VwdXON3LN7TyIg57uSkZGpO9iwcMrUqWPTUlPXP/bYY5g6dWqlY6xB90mTJlV6c8KECZg6dSo+WLBgnPm9+lNcRkbG8WDDwvHjx4+9795716uUSoSFhUEQKs8LCgAwb9486xs8z2PJkiUwGo0YMWLkSEBe2S4jI1M/3H3X3SN8fX0FkVLjyJEjkZOTU+lzQilF+/btrW84Ozvj6NGjaNGihU9CYuI1jhAXeTgoIyNT11gWkWL69OkDf/31170Gg6HS59Yh4U8//WR9My0tDWPGjEG//v0HcIS41J+6MjIyjoxlqw66dus2cMWKFXvHjBmDRx99FCqVynqMAABvvPEGAMBoNMLHx4cIgkDvGHhHf9aIjIyMTH3Rr2+/vgBgMBgwduzYSp9xAKBUKqFUKtG2bVtkZWVRo9GIPn379mgAXWVkZByc1m3adPP19XXZvHkz4uLiKn3GAUBMTAxiYmLQrl07nD1zBqFhYT6tWsV2ahBtZWRkHBoXZ6eAXr17d1apVFixYgUEQbAuvRIAYNq0aQCAHTt2IDMrC+MnTOikEIRbZ/WTkZGRqQMozOuxenTv3vnfDRv2cxxHpk+fTllZewGAdZZwwIABBABt1apVGyYsIyMjU1+w9VgxsbHtASA7OxvLly+3fm4tQuHs7Axi9rto27Zt2zBhGRkZmfqmVatW0Wq1GufPn6d33XUXrl+/jri4OLPB+vfffwEALVu2pGq1Gq1bt45pUG1lZGQcmtat20QbjUbX1NTUEoVCgfz8fAAWD2vNmjXQaDRITEykTmq1um2bdi0aUlkZGRnHRqlUhMfExISeP3/+wuHDhxESEgLAMkv4xRdfYMWKFYiMbAF3D49gjufCGlRbGRkZh0YhCFzPnj3DAWDz5s3W9zkAeOihhxAQEECSkq5i8JAhIU5qlVMD6SkjI+PgsNC5QqmMAIBVq1YRk8kEwGKwHn30UVy9etV8kEIRXFFIRkZGpj5hk31dOncOAYATJ07g+PHjACwG67PPPkP79u0JAHh6eAZWFJKRkZFpCMLCIwIAwM/Pl4SGhgKwGKzS0lLs2rULANC7T+/ABtJPRkZGxgql1N/8L+Dr6wvAYrBSU1NRUFAAAHB2dvFpIP1kZGRkrPj5+voDQHZ2Ns3OzgZgMVhPPPEEoqOjCQDwPO/XYBrKyMjIWGjTto2np6enU25uLv30008BWAzWl19+ac3sJygEzwbTUEZGRsaCWu3k7uTk5AEAvXv3BmAxWLm5ucjNzRWVSqUQGxPj3oA6ysjIyAAABEFwUyqVrgBw5coVAlgMVv/+/ZGVlUVdXV1dg4NDnBtSSRkZGRkA4DjOlRDiRAixVoLmAODo0aOE4zg4Ozs7EUJkgyUjI9PgEAKFSqVy5jgOhw4dAlBhSEgIgSAIzhzHyXncZWRkGhwCoHWbNi4mkwmurq7lQ0KNRgOTyQSO45S8wKtu24qMjIxMPeHh4eEMAJGRkeUGKzQ0lAAABZSEENlgycjINApUKvO+5k2bNgGwGKygoCAAgNFgUBFA0VDKycjIyAAVNkALCiUAREdHU8BisNjGQjc3dwVpCO1kZGRkqoDjOTUA5Obmlg8JWf36qOiWygbTTEZGRuYG2IivpKQEgCXjKDNYapVKNliNBO4Wrq5c2Na+yNe5ccNbjJNKpSKAxWAlJiYCAFycXeSAewNSVefRG4zWmmwKga90jNypbEO+zk0HjnAqAMjIyABgMViWajkQRZP80zQAFTvHxUuX8M8//2Df3n24ePECyjQacIQDpSIiWrRAj+7dcc8992DgwIFWOblD1YxK1/niRfyzYQP27tmDixcvQqPVmq8zKFpEtED3Ht1xz5h7MHDgAPk6NyCiKAIoTy8jAIBOpyMAoFKpZQ+rnmGdIT7+PN7/4D389utvtzz22rVr2LN7Nz799FP06tULzz37HCY/OBkcMc+qyEkXbw27zmfOnMH777+PVatW3fLYa1evYvfuXfj0k0/Qu3dvzJkzB/fffz84Ihut+oLVJ+QFXg2UO1UcADg7m3fjEI4IDaahA8I60UcfLUK7dm1va6xu5PDhw3hwyoMYPfouJCcng8D8A8vcDLvO77zzDjp27HhbY3Ujhw4dwqRJkzBhwkRkZmaBI/J1rk+oKHIAoNVqAVgMltFopAAgmsQGU8zR4AhgMBhxzz33YN68uTa3s2nTRnTs2BH//bdVNlpVwBGgqKgYQ4cOxdtvv21zO2vWrEbHjh1x8NAh+TrXIxzHUQDW9FccALi6ugIACMfJFqseMBsrA/r164t//vmn1u0VFhZixIg7sXrNGnNnqr2KzQKOAAUFBejVqxd27NhR6/aysjLRt08fbN++Q77O9YTJ4kS5ubkBKF+HZc42yhF5lXsdw4Yng4cMwdGjR+3a9sQJE7Bjx04QIncmjgBGown9+vXHhQvn7dr2sGFDEXfmjOxl1QMmk1EJABzHAbAYrEuXLgEABEGhAuQSX3UFu8GfePJJ7N+3r07OMXLknUhJTXXozsQeCmPuGYP4+HN1co47hw9HWZnmluu4ZOyDUqVSAOYJJ8BisCIjIwEAIptDlKkTCIBVf/6F77/7rs7OYTAYMWrkKAC3XhTZnGGGesGChdhs2TBbF2RmZuLee+8F4JjXub4QRfO8LM/zACwGiwW0FAqFPEtYR3AEKCwswsNTp9T5uc6ePYO5c+cBcLzgMAEQd+Ys5s9/tc7PtWnTRvz08y/W88rYH46Yh4Iszs4BgL+/v/lTIsew6gJmNGbNnAmdXl8v51y06COci493qI7EPJ3Jkx+ot3POmvkkSkrKHO7BUF9wvCV2VTGGRS0rDuXUMnUDAXA6Lg6//V7zdVb24PHHHwfgGEMW9hV/XLYc8efqJm5VFWVlZXjjzdfNOjjAda5vWJQqJCQEgMVgXbx4EQDAC5zZYMlRd7vBjMXLL71c7+c+eOAAtu/YWe/nbQgIAUSRYu4r9X+dP//8M2Rl5ziUN1tvWGyRVqstX+nu6elp3ktoonyFY2TsRNyZs9i69T+bZN3c3NChQwebz806cHP2sphns/S7pdZ4rFS8fXzQrl072xSgwMKFH1bSRcY+UFBW4BmAxWD5+Jir0/M8Jw8J7QgzEh8u+MAmeRdXVxw/cRJxcXF4cIptwfrjx49j7779Nsk2FZiNeP/992ySDwgIQNzpOJw9exajRo22qY2l334LjUYre1l2hoBQAKhUqp6NE6kcw7I72Tk5kvauVWTDPxsQE90SALDyl18wcOAdNrXDnv7N2ctavXoN0lLTJMtxPIc9e/chJCQYALBx47/WZT5SKCsrw4qffgIgzxjaE0qtHlZ5imQGAeRsDXaC3bQrV/4KW5a3PTV7NgYNugMU5RkC1q5dC7VaLbmtjf/+i9S0dMlyTQFmhL/44n82yS9d+j1iY6JBafl1XvXnXza19f13SwHIw0J7Qi0BKj8/v/IYFixhK2LZaChTe9hNu/KXnyXLurq6YfHixQDKU8ZQCnh5eWLRoo9t0mf5sh9tkmsKJCZdxe7duyXLde3WDY89+giA8rgtBdC9W1dMemCy5PZOnDiBi5cuS5aTuTVsBcOFCxcAWAxWSkqKuXvJ5squJCZdxbFjxyTLvfbaa1AplZXyW7H/feaZpxEWHia5zZ9/NhvO5jgsXPnLLzbJffXVVwAq57hi1/zjjxfZ1Obff9nmnclUDQu2R0RElA8JWWpYKmeAsyvr1q6VLKNWq/HMs88CuPn5wX6e119/U3K7Fy9exMlTpyXLNWaY8f3jj98ly/bp0wd9eve+5edhoaEYP2GC5HbXWn7z5vhgaAioZWuOu7t7+ZCQJXhnq0llage7Wbds2SxZ9sEHp8DVxblKZ5e998iMGfDy8pbcNnv6N6cYy/kLF3HOhoWi8+e/AaDqDKLsveeee15yu0ePHkFaWoZkOZmq4Thzb6qUwI+5W5AnOOxGcXEJ9u7dK1lu+owZAG6d7pgCEAQe06ZPk9z2xo0bATSPH5kZ3X/+WS9ZNigoGHfdNara4+4YOAARLVpIbn/rtq2SZWRugeWHLigoAGAxWFevXjW/S+Qolr04cvQoysrKJMmEhIRgQP9+tz2GGbJp06ZL1unkyRNIsWHqvzHCjO72bdskyz744IMAbh+yZZ9NnDhRcvv795tTBzUnT7ahYFmQWV/iAKCoqAgAYDQaG0it5sf+A9IXa949ZgyAms19dO7UETExsZLPsWtX89mqU1JSioMHD0qWu/f++wHcvmgH+2zMmHskt3/IopNsr2oPIeaFo6GhoQAsBstgMJj/IHIMq7aw+NXhQ4ckyw4fdieA6qvfsI/HjR8n+Rx79uwB0DyCwoePHEFxcbEkmdDQMPTu2aPGx/fp0wde3tLihWfPnm22694airy8PAAWg8VqfhHZh7ULlAJn4+IkySiVSgy8Y2CN2weAESNGSlUNx45KX2bR2GB36ZEjhyXLjh5dfeyqIiqlAncMrNnvwqCU4vSpU5JkZKqGcJWNEtv83CDKNFcuXb6M5OvXJcm0a9cefr4+kmT69etnTc5fU86ciUNmVrYkmcYGu4WPHJZusIYMGQqgZvUF2SG9eveRfJ4TJ08CkONYtYXtEmE2igOArKws80p32cWyC7bkY+reo7tkGbVKiX79bh+kvxGj0YgzZ85IPldFOGKfV22gAOIkerEA0Kdv35qfw2KxunXrJvk8LJe83KHsw9WrVwFYKj+7u7uToqIiGE1GeZawNljuzqSkJMmirFPUtLIwtZyud+8+2LxZ2nqv+HPnMGzokBoffyvjkpCQiMtXLiMnJxfXryejrKwMRYVFMBj0oABUKhXc3Nzg5uaG0NAw+Hh7o3Wb1ogID6+yXSlVlVNT06w3cU1p27YtwsNCJckAQOfOnaFQKKyx3ppwTaJuMlXD1oZ26tQJgMVgWesSys+DWsGuXkJigmTZtm3bSjqelfLu0rWL5HOdO3cWAG5bev1GY1JUXIIjRw5j/759OH78OM6cOYPr16/DZDJJOrdSqURoaCg6deqErl27oV//fujVsxecnZ0qnbM643U+Pl7ypvKuXbtKOp7h5+uD6OhonD9f83JhSUlJ0BuMUMplEmoF+43ZfSYA5R6BvNK9drD+dvHCRUlyPM8jKqqlTefs1KkzCCGStlVdutUGXVI5fUd2djY2bdqEdevWYe/evdacRLVBr9cjMTERiYmJWLNmDQAgKDAQAwYOxD1jx2LUyFHw9vayGq9bGa5Lly9JPneXLmaDZUtpqOjoGEkGKz09HVevXkVsTLQNZ5NhUMsNkJubC6A8H5Y8FLQj2TnSOnZkZCSCg4NsOldEeJjk/E3Xryff9B5XwVht2PAvpk6dipYtW2LatGlYvXq1XYzVrUjPyMCqVaswdcoUREe3xIwZM7Bly5ZyvSp4XizKKnU4CADtWeZWG+721m1aS5bJzJC36NQWXjBvfmYPZLY1h610l8eEtUSj1SErM1OSTFBQcK0ufKzEBaRpaWnIyjanEmYGoaysDP/73//Qpk0bjBlzN1auXCl5jZM9yM/Px/LlyzFy5Eh06NAB3y5dCqPRaNWTXadrV69JbjsqKkqyDHuUh1viblLIyJQNVm0xGc1DQZYHjgMAJycnAAAV5XQNtSUvN0+yNxJmQyAYKHcUwiOkdSaNRoN8y0K80rIyLFq0CK1bt8bzzz9vzTvUGDh79ixmzZyJ1q1bY/Fnn8FgKN+JkZiYKKktf39/hIVJT8vDYFVbpJCVmWXz+WTMsPQylSo/X7lyxbKsoaHUaj4UFhVIDkQHBto2HGSPlzYSA/aEEFxPScFff/2NNq1bY+7cubgucd1YfZKQkIAXX3gBbdu2we+/m1PJaLUaSW1EtWwJldL2DODW2p0SYBt25X5lOyzjqEajoYAl6K5UKqHRaOR8WHYgJydXskxAQAAAadP6FQkKkmbwCCF4YNL91kBmU+HKlSuYPHkyPvvsc8lerC0eUkX8/KQbLKYjgZwb01ZEk7lXsMpeAgDwPG8u82VJ+C5jOyUl0uM+vn5+tTqnv3+ApONFUWxyxqoitmzJCQoMBGC74fDx8YGTkxM0mpp7dg0RA2x+mG1Spc3PrMyXIAjyg6CWZGVJj1v4StyScyPMQ5O5NYEWL9TWQYSbm5vkYWGmHHSvNTxvXsdWqVR9cXExBcrXPMjYji0VclTK2hUrcnVxgUIhV2i7He5u7rWSFwQBSpW038mWe0HmRsw2KT09vTynO7NerMqqjO3YsvjWzb12ncnH1xdeXl61aqO5419LL5QjkLzRXF6IbRcoAGg0mvIYVkFBgZzTvQFRKpW1kndycrKpXmFdwPM8vC35o/LycmEyNQ4vw8XFpdZtyF5s/SOKZieKrYMTAMDHx4eWlZXJUxkNRG2HDhwB/Pz8kJx88wr2ukKpVJr3A3brhg7tOyA2NhZBQUFwdXOFl5c3KKUoyM9DUXEJ0tPScOnyJZyJO4MTJ47j5MmT9T5c8qvlxAYgD/EaApZAhv0rAOUZR+X1Ik0XqfEVW3B1dcXIkSMxduxYDBg40Jp14VZ4epiHuh07tMeIEXda309MTMSePXuwbt06bNmyRdLMm63U1ouVaTAoYF7SAlgMFqtfT6nsYzUEnGU1b20wSkh9IpU+ffrg4YcfxsSJE6v0VGo6V8P2BEZFRSEqKgrTp09HWno6/vrzT6z8ZSWOHD1iR60rY496BXLIpP4xieZF2NSySJQDKi1nkH2sBkAjsbpOVahU9o9h3X333di5cxcOHDiAmTNnWo2VSCu/akpVcsFBQXj22Wdx+MhhbNq8GcOGDbP79wDsE3/S1oMnKFMZVpfQz8+vvJAq20sITvawaovUbTkAUFpSUuvzettxlnDQoMHYtm0b/vnnHwwadAcA2wxUddzY5sgRI7B161Zs2rQJvftIT0t8KwRBqHUacJECpaXSHiy23AsyVcMelhwA5ObmmoeEJtle1RZb1lRpddpan1ftVHsPy8/PHz/+uAw7d+7A0KHluc/rY3leJcM1ciQOHjiAr79eAnd3j1q3zXFcrZd96PV66LTSfidVPcQVmztsu2Clys8sIMncLxnb8fOXPhtly+r4iuj0ehy0oaxYRaY+9BAuXryIGTOmA6g/Q3UjFc/71FOzcP78eUyYIL2YaUUMBgP22VCFuyJFRYXIzJKWNqi2a79kAI5wFDAnRAQsBotNGcrTtrXHFo8g05KGpCaztFUVcvjoo49wvRZLGpZ+9x1+/ukneHl5gqJhDNWNiNQ8PRQcHIS///4Lixd/ZnNblFI8//xzAG6+fjWdGc/OzoFer5d0Xg+P2nuHjg5bzM6SjHJAeZFCk0keE9YWW9b75OaYk+kRSK80U1Rcgk8+/tgmXb28vHDw4EE88fjjACxGohHdAbSCtzVnzvPYum1bebxVIleuXMGff/510/vVXXOGLZvF/S0ZHhrRJW2yBAYGlq90DwkJoUlJSfK0rR1wcXGBUqmU9DROS0ut8v3SMg3Onz+PlJTrSL52DRcvXkRWdjauXr2KkpISqFUq5Obm2pQVIDIqCrt27kR4eDgoGpehuhGRmo3HsKFDcezYcQweNAhZ2dKH0Q8//BAWfLgABr0eHMchODgY4eERCA0NQWyrVvDz80O7tu0QGFg+lGNGK1NiFlmgfCtPY762jR0Cc6l6FssSgPJ6hPJewtrj4+ODgIAASQnxsrOzUVxcjH3792Pjxo24fPEiUtPTkZ2VZVNHqY7Q0DAcOnQI/n5+jWL4VxNES5Wgtm3b4MjRo+jRo7vknFharRanLAVOAVRZn9HV1RWBgYEICgpCZGQkRo++C5Mm3Y+iokLJOgdKzFMmczMsTMWSIQoAkJGRQYHydKQytqNUCPD19ZVksI4fP4Ho6OhaB99rgqurKw4cONCkjBWDeSoREeHYu28fOnboIDmuVB0lJSW4cuUKrly5gr179+Knn37CG2+8DkGQXq7LliylMpVhE4FFRUXmvwEg0JLcDPJKd7sgNQNocXFRvRgrAPh340aEhYU22WEKG762io3FakuZsLrm8uXLkkp8AeaJrCAbU1/LVKKSM8UB5atI5VnC2sFsQEystCo29cWrr83HwAEDzJ2+oZWpBUz3u0aPxqxZTzWoLrciLCxMcnEQmZthWZDZbhwOgHWXP5GXYdUK5rWEhTW+G7V79+5Y8MH7AJpHEJgNZ5cs+RrRMTENq0wVBAUHg5f7kx0w/9AuLi7lW3OYZ8WC7zK1o0sX6eXj6xJCgLXr1gNoHGus7AX7LuvXr29YRaqgXbt2Da1Cs4CtXMjLyyv3sNj6K1ahQqZ2DBk8CN26d29oNaw8P+dFhAQHNelh4K2gANq0bo3p02c0tCpWeJ7H/PnzATSvB0RDwJypSh6WTqcDAFAqyh6WHbh27RrK7JCBwR54eHjg3XffAdA8hoI3wr7TJ5980mj27hFCcOzYcQBVL/aVqTmEmD0slh6IA4AYSwxAXtZQOzgCnDl7Fh07dsT5+PiGVgcA8MrcuXB1cWmW3hWDAvDx8cbTzzzT0KoAMHeuSfffh8WfmbcTyUbLdliQqk2bNgAsBostypILqdoOR4BTp0+jT+/e1jUjjYEnnngSQPP0rhjsu82e/XTDKnIDL77wAhYsWABANlq2IlpqArDdHBxQXkhVzjgqHWLZc3bx4kX079cfpaWlDa2SlSlTpsLXx7uh1ag3IltEYNRddzW0GpWYP38+Pv/8cwCy0bIFtnIhPz8fgGWlO9v+Ic8RSoMQ8+bZ06fjcMegO1BaWvtEfLfDx8cHPj4+8PcPgIuLMwoKCpCTk4PMzEyU3JAE8IEHHsB33y0F4BiBX7bfcOXPP2P69Ok3zRx6eHjAz88PPj6+8PLyRElJKTIzM5GTk23tDHXFnDlzoNXpMG/uXHDEMX4Pe8Fz5vQyLBmiAABubm60qKjIWlJHpnqYsdqxcydGjhhhLeRhL9ROavTt3Rf9B/RHt+7dERUVhdDQUHhWkbIkIzMLycnJKCgoMK+wDgpC+3ZtAThW5xCpOQPFunXrEBd3BplZWQCl8PTyQosWEfDz9b1JJi8vH6lpqbhy+QqOHTuKvXv34tChQ3b/PV+dNw95ublYtGiRbLQkQC1p21nQXQCA1FRztgBBwcuXsYYQmLe53G3nIcjQoUMxefJkjBw5EiEhITWSCQzwR2DAzfvWHLFTME+rY8cONTre29sL3t5e6NC+PcaPHwcAuHYtGZs3b8Jvv/2G3bt32023jz/+GIVFRVj67bey0aoplmtUaZaQzQ4258CsvWD5k3bv2WNXY/X444/jxIkT2LZtGx599FGrsbqxcIOUl6NS22sWERGOJ598Ert27cKRI0fx0EMP202375YuxUsvvQxAjmnVBBam8rV4xxwAtGzZEgBgMprkS1gNhAAXLlzEncOH26W9++67D6dPn8Z3331nXSEvG52G48Zr36NHd/z00wocPXIUY8aMscs5Pv30E3zyyacA5LhxdVRYOArAYrBcXV0JAPC8PCS8HRwxZ/js179frdOaRLVsifXr12PVqlXo2LEjANlINTYq/h7de3TH+vXr8fvvv9d4qH47Xn75Jfz5199yXb3qsFj09PT08q05CQkJls9ke38rmPs+auQI5NmQLrciM2Y8gnNnz1qf2LKhatxU/H0mTZqEc+fO4d777qt1u/ffdy/i4+PloeFtYCZJrVaXb80pLDRnU2RVVmUqw+6nF196GQcOHKhVW19++RV+/PEHqNVq2VA1Mdjv5eHhgT9XrcKHHy6sdZsjRowApVQ2WtXA6k6wIaH5D0Lk7lMFhADbtu/A4k8/sbkNQRCwafNmPP30bACyoWrKsN9u3ry5tU4imJKSYt24LY9vbsZkWenO9olWMljy1pyb4Yi57t/9tRgCKJRK7Nu/HyNHjAAgG6vmAPsNx48bh+3bd9SqrZ9+WoGNmzaDAHJM6waYEWcxYw4AqMVSUfl6VYJdrPnzX0d+fp5NbXAch71796JXz56VylbJNH1YWbQhQwZjx46dtWpr1kzznk/Zy7oBS38JCAiolA/LPEvIybOEFSEALl9JwKef2Fb3DwD+27rVbKzQtNMSy1QN+10HDx6ENWvW2txOcnIy3nv/AwCy11ARlsDPycmpPOju7+9vTuAnB92tsCDoc88+a3MbS5cuxdAhQxp93T+Z2sF+23HjxuLjj22Pc77z9lvIzy+QvawKWPcQVszpzt6EvKyhEkeOHsOmTRttkp02bTqeeOIJALKxcgTYUP+ll17EuHHjbGrDZDLh9ddfByAPDRnMJGVnZ5d7WAqFwlw1xyRXzQHKvatXXn7JJvmw8HAsX74MgByzciTYb/3HH6vg6+tnUxtLlnyNa8nJ8rDQAst4VSnozvYSEk5e1sCIj79g88bXv//6G4BsrBwRkQJKpQK//vabzW0cO3bMjho1bdjWHJYVmXlY5j8s+ZMdGeaKL15sWyziySdnokeP7vIw0IGhAIYPG4r77rvfJvmTJ08CkIeFQLkzlZ2dDcBisNgf1liWA0MAFJeU4tdfV0qWdXV1tWaXlO2V48IeVt9++61NJe6//eYbmERRHhYCIJarUGlICEv/kmPuZv78809oNFrJcm+99TbUapVsrGRAYc619crcuZJlc3NzsXbtOvsr1QRhfUmlUpXPEl67dg0AQDjHtlgs2P7LLz9JlvX09MLzzz8PQJ4VlCm/B1599VWo1WrJ8it/+RmAnDOLfX1Wd4IDzGllAcBkNDl8V8vIyMTuXdKD7c8++ywEgZeNlYwVCsDVxQWPW5a3SGHz5s0oKq7bGgFNATbqKyoqKvew2LIGztHNOYBNmzZbZyZqCs/zePppc4kp2V7JMNjDa86cFyTLajQabN++zc4aNT0oNfdFd3f3cg8rJycHAMBxjltIldnqrVu3SJYdM+Ye+PndXOBARgYwlx8bPGSIZLlNG82Llh3aj7B4WGlpaQAsBqtDB3PCfpE69sJRUaTYuVP6JtbpM6ab5WX3SuYG2D3BUshIYd++fXbWpulBLRfQ399cZIWr+Iejcy4+HhkZGZJk3N09cOedd9aRRjLNhbvvvhtKpVKSzPnz55F0NbmONGoyUKB8YpADgKysLHN6GQePGB89ekSyzNBhw+BkwyyQjGPh7eWJ/v37S5Y7ftyxV71zlpULvr6+5UH3uLg4AjhuTnf2rU+dPCVZdtjQoQDk4aDMrWF+wPA7R0iWjY8/B8BxV72za8dZZgQ5AHBzcwMAEDjmXkJ2L5w7d06ybD8bnpoyjgXrVL1795YseybuDADHzZHFNj9nZmYCsBis8u0DDmmvAJiHw8nJ1yTJBAQEoJ2lJLyMTHV06dLZWl+vply+fKmOtGkasAR+QUFB5r+B8iKFhDjuBGpeQSEyMjIlybRt1w4C77hLQSrCkdu/HHVIUxEPd3e0atVKkkx6ejpKyzR1pFET4AYfqtI6LEqpw+5+zs7KQklJsSSZllFRABzLL72VQaoOcgtZRyPakialpmRnZ1uHQ44IW8QdHBxMAUAAyrM0iKKoayjFGhpmtKUQEREBoG73DhJy+/hFXQf7b3X++PPnkZCQgPPx8cjKykZmVibKSstQUlJcIesHgaurK5yc1PDy8oa/vx9iY1shOrol2rZtB1dXl5uMVn1MXtzOUNbV+UVqPm90y2hJcpRSFBUV1Y1STQA2JCwsLCSAxWD5+PjQ9PR0a4DLEcmy4SkW0SKyDjQpp2LHOnrsOK4nJwMECAkJQY8ePcARAo7UTSe7sVOfOXsW27Ztw6GDB3Hs2HEkJibUqn1/f3+0adMG/fr1xx133IGBdwyEWqWynreuv1NCQiIuXrqI4qJi+Af4o3PnLvDy9KjT8wOArw07IgwGQx1o0jQQLStHy8rKAFgMVnGxdSjkgE66GVtygbFN4/aGwOzZlJaWYfHiT/HLz7/g0g3B16ioKEyaNAnzXn0V7m5uoNQ+Q9OKnfrKlQT88ccfWL1mNU4cP26H1svJyspCVlYWdu/ejQULPkBoaChGjx6N++67D8OGDbO74WDt/f77H/j2229uyibr4+OD0aNH49lnn0X37t3r7EHAgsdSyMyUtpi5OcGWMzAvkwPKq6oSB678zFxPKbACtPaGEODgoUNo164t3nzzzZuMFQAkJibiww8/RPt27XDo0KFaB7UrxpR2796NqVOnolWrWLz++ny7G6uqSElJwXfffYfhw4ejW7du+P777yGK1C6xLo4AJlHEhAkTMXnyA1Wmvs7NzcXPP/+MHj164MOFC61y9sbZyUmyTFmp4wbdWZ0JDw+P8oWjwcHBDutZ1QaFDdkkq4MjQFzcGfTt29e6HeF2XL9+Hf369UNc3BmbOxiT27//AEaNGo1BgwZh5cqVkrNW2IsTJ07giSeeQOs2rbB06VKrjrZ8PyYzeNBgrFmzukYyr736Kt588y0A9p/dNBqle/K84Lgz0UajEUD5onYOAC5duuSwnlVt0Ns5tsA615gxYyRF8kVRxF13jYbJJErq1MwIZGdn45FHHkH//v2wefMmiVrXHZcvXcbMmTPRrXt3bN1mTrUi5fsxYzN33qvYu3ePpHO/9967OHT4iN1jJLakTGad1hFh9SaSk817KjkA8PMzlyRy5L2EtngTFWJ/tYZ1rmXLV0hewAqYh1RLvllSqa3bwTr+smXL0ap1ayxbtkzyOeuLE8eP487hwzFz5kzo9YYar+siAFJSUrHoo4U2nfelF18EYN+hYUFhgWQZd8tOFEeEZZBhIRsOALRac/5y3oEXQQo2uN05luId9oAAMJpMeOP1+Ta3sezHH61t3Q6OmIcmDz30MB55ZAby8/JsPmd9snTpUnTo0B7Hjh2zruu6FeyjlTYUE2Hs378Pu3bvtVm+KtLT0yXL+DlwNhVmqFi8WADMU8w5OTmglDpsLCsgUPrsTVJSol11+Ouvv5Gammqz/OXLl1FYVAwP91s/kTkCJCUlYezYsThz5ozN56qIt7c3QkNDERoaCldXNxBCQCkFx3HQ6bRIT0/H9evXkZ6eXuu42KVLl9CjRw8sX74C06Y9fMvZPOaBnT51qlbn++TjjzDojgG1njVkHSvXhvV+dRErbSrwzLOy/CsA5XmTTSZR30B6NTj+/v7WjlZTrDl6ankzM09h7dq1tjcC85C+TKO5pcHiCHDi5EkMHjQYRUWFNp+nU+dO6NunL/oPGIDY2FjExMTe1kgCgN5gRHLyNVy+dAmHDh3CgQMHsHvPbhj0tsUBp0+fhvSMdMybO/e217+28Z9du3ZV+xCoCcyAXrp0WZIcx3Hw9Pau1bmbMqbyle4ALAbr8mXzRSSAATBfXEcLZ/n6+cHd3R2FhTXvyImJ9vWwMjKkDxcqwnHcLXNzcQQ4fuIE+vfrZw0BSCEmJgaTJk3C2LFj0b17d8nySoWA6JYtEd2yJUaNGgUASL5+HVs2b8Yff/yB7du3S27z1XnzoNfp8eabb9zSaPG19E5KS0uRnp5ea4PFuHRJ2mbm4OBgBAUG2uXcTRHmQOh05k04HAB4enoCAEQqOuyQ0NPdDYESh4VnzpxBaWmZ3XTg+NpV3g4NCYWnh/vN7RLg0uXLGNC/v2Rj1bt3b/z511+4eOkS3nvvPauxEmE2ELa+ACA8LAyPP/44tm3bhsOHD+ORRx6R/J3feutNLP7sMwCVA/HsgdsyqqXkNuuKtPQMydkXgoODoVQ47pCQYa1ODwC+vubtAg6av89KTEyspOOLiopwzJ6LKmu5tHrMPfcAqLzinSNAYWER+vfrB42m5gsQY2Jj8dtvv+HgwYO4d+JEEEu7VoNTSw/8RuPVs2dP/PDDDzh9+jTGj58gqa0XX3gBf/+92rxDwPIeU++++20rF18Re01GHTt6VPIQNTZWWnaH5gbL0ZeVlQXAYrBYINRRlzWwb92hY3vJsjt37gBQuwWG7PytWrW2vREATzxprn9nzdJo0emuu0YjW8KM5iuvvIJz587hgQceAFBuWOrq9qhouDp27IjVq//G6tWrEWSJW9SEe++diMtXEm76HTp17IDOXbrYrJu/vz/CQkNtlgfK743de25eYV8dHTt1AuC4GW3ZRCDP8+Ur3St82gAqNTzsa3ex4cbeaCnFVBvflJ3/0cces7mN+++fZE13A5R3kg8WLMD+/ftr1IaXlxf+3bgRH330ERSCUMmQ1AcVzzd+/HicO3sWI0aOrLH8PWPuBlBuqFlbCxZ8aLNOU6ZOhVqtqpVDye6NDf/8I1mWVbRyVFhCBl9fX/NlpJSidevWAgDMmTPnJUopFSmlJtGxXpRSmnw9hQ12JL2Srl6jtJbXzKICnXjvvZLPHx4RQYuKiyvpQCmlVxISatxGbGwsvXotmTIa+vdg34FSSp98cmaNv8e7771PK97DrJnZs5+WfF2VSiXNycmt9fWglNLTcWckn1+lUtGc3LxG83s0xO8/54UXPgQAnueVlFKzh5WZmUmY8XJkwkJD0K5dO8lyK3/5BUAth4WWS//zTz8hNrbmsbSg4GAcPHAQbq6uVo+CeRiPPfpojdpo3bo1Dh06hIjwsHr3qm4H0+Pbb7/BnDlzaiTz5huvIyMzszyWZWnjq6++xLRp0ySdf9269fDx8a7VwIPdEz//9JNk2W7dusHHu24ygjQVWPwwIiKifEhYUFAAwLEyZ94I++7Dhg2XLPvtt98CqH1uHpECTk5OOHLkCEaPHl3t8e07dMDhQ4cRHBx0k5HZuXMXdu3aVW0bgYGB2L//ALy8vBqNoaoI02nx4sWYMWNGjWRefMG8pYbcMDRcvnw5nn7mmWrlQ0NDsWXLfxg5coTV3bEVAnOB3mXLfpQsO3ToMKCW52/qUNH861UqVc8KPLLcM44Ie4qymTYppKRcx+o1a+2ih0gBDw8P/Pvvv1i1ahXGjh13U6HbsLAwvPXWWzh9+jTCwkIrGRr2C77yyis1Ot/27Tvg7W27saou5bE9UiIz3X788Uf06Nmz2uN//XUlEpOuVnqAsDa+/OIL/PXXXxgwYGAlGbVajT59+mDRoo9x/sIF3HnncLOxqo13Zfl32fLlyM3NlSw/dtw4oJY6NHWYTbIux6GUomXLlgoAeP65Oc84agyLjZlNJhMNCAiQHG9o07atXeM/FSkuKaWHjxylW7dtpwcOHqIare6W56KU0qPHjtdI56+++toc76mljhlZWbSgsND69w3q09y8fJqVnVPr60MppZlZWVQQhGq/29NPP1MpllXVdT0Xf55u27ad7t69hyZfT6n0mT1/w/DwcMn3U8uWLe2qS1N8UUrpy6+88iEABAYGlsew2PocEaLDFqEAzHcKx3G49977JMuej4/Hn3/9bTddKsaSXF2c0bNHdwwbOgR9eveCWqW0romqCBsC/fB/31fbfucuXTB79lMApA852MbjI0eOYtCgwWgRHo6oyEhMmvQADh0+bPUs9uzZg3HjxiEqsgUiW0Rg5MiRiI+Pt9nTohTw9/PDx598Wu2xK1f+DIPBeNMwveJ1bdumNYYOHYKBAwcgLDTkps9rAzvv0qXfW1OjSGHy5AcBOPZwEChP4MdSJINSCi8vLwUAzJ799GxH9rCYVT956rTkJyIAGhAQaPUuGkp3o8lE/f39q9V17/79NutJKaWJiUnUsjbmptdbb71NX3llbpWfuTi70OspKbU6N6WUhoaGVvsdN2/+r0F/i9IyDXV3d7fpXrp8JcGhvSt2DV966eUFANC2bdtyDyvQslfJgcsSVqJzp4427ZfLzMzAU0/NBtBwJayOHDlqXRV8K7p3747+ffva1D7z4hYuXHjLPPjvvPM2Fi36qMrPSstK8cUXX1RqSwosnvNyDWJ0mzZttPk8tYH99o88MsOmijdDhg5FdMuo6g90IPIsKZA4ANZV0I6+NQcoHw7Me/U1m+S//WYJNm4yZ+1sCKO1b2/1+ZuenDkTgG1DH/aVrly5Il3YwtWrVyu1JQWm8kMPPWytRXArDhw8YPN5bIV1od9+/wN//P67TW289po5J1pjnLWtbwhX2ShxQLn1Io5bNOcmJk4Yb607KJVxY8dizdp1AOrPaLHzxMfH3/Y4QghGjap+ycStYH2oX79+NrfRu3cfc1u16JBenh64445Btz3m0sWLKLHj5vSaQADEn7+AKQ9Otkm+ffv2GDpksH2VasKwbYMsQQMHVCg9RBw+xgeg/Mn24cKqhzXVYTAYMGH8OHzzjX3WZ0mhuqSCHTp0REiw9GSFDGZkXnzpRQQF1XyvHyM2NhZPzZplbstWHSz/Dho86LbHFRYW4uq1qzaeRTocMacc6t+vr82LsD/5dDEA2bu6EeaVcwBgMBgoAJhsqOjRnJn8wCS0amX7bvmnnpqFuLi4eo2hZGffPqNl+w7SN3jfiEgBD3d37N+/H23atKmxXNeuXbF37z6o1apadUhmC1q3rv7c2Vn2S2N9OzgClGk0GD78TuTn59vURvce3THiTukLl5szLNNoJ8smcA4wp7iVqQzrUN99/3+1aue118yxsPoaGlYXh4wID7fLeUQKREa2wMmTJ/Hcc8/dthqMSqXC3LnzcOz4cfj7+9nNewgJCan2GFvqTdrK77/9UauK2Oxek72rctiQkE3wcIB5OwgA8DwvB7FuYOCA/ph47702y2/duhV5+QX2U6gaqjNYTk7OAOyzvkekZmP0+eef4/vbGPblK37CwoUfmrep2LEzujg7V3tMfUwksYfRlv8229zG448/ji6dOskxmRuwVKq37hTgAHMaWAAwmUzSc+c2Y6xbQn740VoKTSp6vd7uqZRvx62WGjBycs1DRnt1Y3aNIqNuPQ3funWrSsfai7z86qv9VHc97EmCjTOn7dq1w1dffQXAsbfhVAUrIstighxQvoqUgspBrBsQKeDu7oYffvjB5jbUt8izXhdUN9WfVEfG83aFSnfvllbEtKawQOztqO562BO2J1cqjz3+BJRKpexdVQGLq7M+xAHmzbYAIIqOm9P9VrALcvbsOZvkPT09KyXWq2uCq8nSeezYMYh2fIyz4dChQ4duecyhgwcrHWuvcx4/dqzaY2sS57IXNZkEqIpvv1kCkdbvbHJTgaWXsVaoAgCDwWBO3UDqL0DZVCAEyMzKxmuvvWqT/MSJE+HkVH8eVlRU5G0/T09Px9Gj1Xd0qVw4f/6WnyUlJdn9fADw77//3vbz0NBQhEhIs2wrbKgrNd8W4+LFi/jmm28A1P+q/MYOyziq0WgoYDFYlv1ODp/A70bYzfPhggU2yfM8j3feeRdA3c/8sPZ79Kg+/cry5csA2Ldz3K64gsFgW+3B23Ho8JFqV9t37NjJporetnLHHQMx3IZ8agDw/nvvgkL2sm5ENJnvbE9Pz/J8WOnp6QRAravyNjcIgMKiYnzzzRKb5P/3vy8QEhJcr7GJoUOHVnvM8mXLUFhUZJfOwb7b448/fstjmOdhj+vAhoPvvvN2tceya1Ef1589MH76+ZfbLvG4FRkZGfh15a921qo5YC5CEWopBMIBgI+PDwXKa3/JlD/pvv/+e+j10gtid+jYsTx9Sz1arJCQYOvWl1uh1Wrx/PPPA6i9l0Wp2SDMnz8fc+bMgZurKwRBgCAI8PT0xBtvvIFnn32m1snwKrJv/wFssuzXvB1jx4216lgfUACBgf74aNHHNskv/GghgIbbON8Y4Xmz8Wfr6SqtwxIdOx1WJVhHXvL1VzbJf/+9OSdVfVedAYAZNShIunzZMmzfvsM+XpblvIsXL8aVhERcvHQZFy9dxuUrCXj33XcrHVMbWEeebCk/djv69OlTr5MdQPl3fGHO8zbtQz175gyOHDlqZ62aOuaLmp6eXh7DKikpaUCFGi87du6yKWA8YuRI9KpBKt+6YuqUKdaH0O0YN24sUlNT7fJEZ8bS398PUZEtEBXZAr4+3pU+qw1Mx4kTJyIl5Xq1x7/40st2O7cU2Pk+tewJlMoSS/hBDr5boQCg1WrLY1gZGRkA6ncbQ2OG3SzLfpReOAAAPv74EwANs8WCUsDZ2QmvzZ9f7bElJSXo27cv0jMywJHad5LblaWvDcxYPfHEk1i9enW1x7ds2RITJ4yv/YlrwcSJE2zah/r3X39Do9XKwXcLomiOYYWFhQGwGCwvL3MpIXmS0AwBoNHqsHbtWsmyw4YNQ4f20kuF2Qv2E86bOw++vr7VHp+cnIwePXrg9OnT1tTHjQVSoXDFlClT8f3339VI7ptvlwJouD157Lxvv/2OZNmSkmKsX7/ezho1XdjWKvZvpZXucgK/cjZu2oiSkmLJcq+/8SaAht3AKlJAEHj8uGxZjY5PTUlB586dsfQ7s0GoTYUbe8ER84Pj1KlT6NqtG379dWWN5MaOG4fhw4Y2ilXjDzwwCYFB0lP5/LlqFYCG/w0aCRQoTxhZKehOqbysgdnsDTY85aKjo3HHwAF21sg2KIAxd9+NBx6oeSK5mU8+iXvGjsWpU6cA1L/hqlgOrKSkBG+99Ra6dOmCkydO1Eje1dUVK1aYC5Y29GiBnf7JJ56ULLtlyxZodTr7KtREMVkmAqllkSgHVFz0J5t0AsAkivhvy3+SZWfMMM/ONXRnqajDypW/oGXLljWW+2f9enTp0gXTp0/HsWPHAdintmBVVNVuSkoKFi1ahNZt2lhnGGvKuvXr4eHu1ijSs7DrP236dMmyJSUl2Llzl131aaqwuoR+fn7lQXfrkFD2QQEAJ0+eQlp6mmS5yQ82rtJMIjVPpOzctcu6X7SmrFixAj16dMeAgQOwePFixMXFWT+70dDY+mKkpKTgt99+w/3334/omBjMnTsXqSkpkvRdsuQbDBk8uNFce0Zkiwj0tSGd9LZtWwHIs4UMli2l0pJch9/8bPn2u2tQ4v1GevbshcgWtuWAr0tECoSFhmLfgQPo17cvigoLJcnv27sP+/buA2CefevcuTPat++AiIhwREZGwd3DHa6urjCZROTn54NSCk9PTygVCuTl58NgMMDNzQ0uzs4oLStDaWkp0tPScCXhCpISE3HyxEmcjjsNXS2GQIs+/hizZpkLazQG75ZBqdng3H/f/Tiwf78k2b17zBkuCBrPA7BBoOZeySo/CwCsWwlEk6gDHPcisUUdu3fvliw7duw4AI3zuokUaN+2LY4cPoLhdw7HdRsKewJAQkICEhIS8Pff9isYW1u+XrLEmiO+MQwFK8L2Bo655x48//xzkmSPHz+OjMwsBAb414luTQYCAwCkpZlHPBxQnuTMYDTcegerA3H69CnJMsOGDwPQuJ7wFREp0KpVLE6dOoVBg5p+VRZ3d3f8888/jdZYVSQqsgXatZO21EUURevkhyMjimYnqlLQvdzDMjn2kBDAxUuXJZcWDwwMQvfu3epII/shUsDbyws7d+7AvHnzGlodmxkyZAjOnDmLu+++G0DjNlaMIUOq35R+IyeOmyc9HDyORYDyyl6VKj8LgsLhl7qfPXtWskzPnj3BNZG7ylrC7MMPsWfvPvTq3bthFZKAh4cnPvvsc2zfvh3h4WF2W0lflzD9evbqJVn2zNkzABx77p5YFodSSstnCVmCd71eZ//ERU0EZm9sqWjcq7f5Zmysw8EbYZ1oQP9+OHTwIH788UfExMQ0rFK3Qa1W47lnn8OFixessaDGbqhupKcNe0trU127uWAymuNVBQUF5UPCoqIiAACl1GFXq7Gn2MULFyTLdu7UGUDjDLjfioreyYwZM3DhwgUsX74cd9xxR8MqVoGwsDC8/vrruHzlCj7/3+cIDAgARdMzVgAQHd3Suh+upiQmJqK0nitXNxaYA0EIdEC5jRKA8oAWc7scmYQE6U+16EbsnVQH6/wcx2HatGmYNm0aTpw8iTWrV2PDvxtw6uSpetUnJCQEgwcPxpgxY3DP2HFQq8oLOzRFQ8XgCEFsbCyuX68+0wQjLzcXSVevon27tnWoWeOGEHPedpaYQQCAmJgYHD16FEXFxQ7rYTFycnIlHe/vH4BwOxUnbUishosAXbt0QdcuXfDee+8h/vx5HD50GAcO7EdS0lWcPXsGeXl5tU57zHEcXJydEduqFVpGR6NH9+7o0bMn+vbpC4WifHmgPRP/NRRseUN0TAy2b98uSZaFaxwVo9GkA8qTiwpAebYGg8Hg0Bn8SkrLkJMjrbR5VFRUJS+gqVPRi+EI0LZNG7Rt0wYzZkwHAJSWlaEgvwDZOdnIzMwCpRRcDXdIUABGgxFeXp4IDg6Bu7sbvC333u30aC7ExsRKlsnMzKwDTZoOIhWNAOBsKZorAOX13a4mXXXYoDsA5OXlIS+v+uKcFQkMDKgjbRqeikaDWLInuDg7w8XZGSEh9qtG0xy8qNvBVrz7B0i/VzIzM+pAo8ZPhUegHgAKCgoAWAwW2/xcUlqid+TKHVqt5rbVX6qC3YTNuL8BKM/dLmM7ATasWi8pduxswAa9QQ+Ue1gcUKGqKiF6AA7rZbGijVLw9vKuA01kmiNeNtwrtlTgaU4YTUYtUF5VmwOAzp07m//gOL3Jsp/QESkskLYxGEC91r2TadrYkoK8oLAAgOOudjfo9ToAiI6OLl+Hde6cuQy7ySQaKKXSa1o1E7KysiTL+Pqa01405xiMjH3w8fGBUqWSJMPuSQe1V8jIyNQAQFZWVrnBUqvVFAAxGAwao9HomCvVbMTbx6ehVZBpInh4ekIt0WA5OklJiRrghiIU7u7uAMAbjHqNXq93WINlSyHZ1FRzojlHddllak5GerrkknqOXNxYpDCYTCYNUD4xyAFAZGQkBcAVFhSWZWZmOqzBCgqWXjCgVK7pKFNDykpLIYrS6iYEB5mXjzTHdWnVIZrEUsJxGqC8dioHAElJSUSlUnF6vV575coV6aVimgm2PM10OocN+clIRKeXPp/lyLOERpOx2GQ0lQLgeJ4vj2F5enqyEl9Gg8GQ34A6NiiWbUuSYCuR5RGhTHVIXZQMAApl89lFIZXCgoKSosKCYgACz/Pl6WWCg4OpJesopVSUflWbCR6W/ORSyMhIryNtZJob6WnS7xV3d7c60KRpcP7C+YL8goISQgjv4uJSucwXS5OcnZ3tsB6Wt7e3tTpHTUlNk15dR8axYBMyUjPZApB8PzYnigqL8gHoKaXWIiUcYN6nw4qpHjt6LKfBNGxgeI6zbgSvKZcvXUJmtsNeMpkawMIF5y+clywbEhJqX2WaECaTKQuAqFQqodFoyj2srVu30gDLnjiNVpMBOG6Z7BYtWkg6Xq/X4/Kly3WjjEyz4vx5aQZLpVJJTvrXnLh46WI6AFBK4eZmHhpzANCmTRtoNBoRAPLz8h0yKMNmjWNbtZIse+7cGfsqI9PsyM7JxaWLFyXJREREOGSZLzaEjo+PzwQAURTp2LFjAVgM1qhRo2AJanGnT5/KMhgMDjdXz7bWtGwZLVn24IEDABzXK5WpnqNHj0pOehgZFVVH2jRuWDcyGU0ZAODk5EQTEhIAWAzWH3/8geDgYABQ5uTkZBcVl9Y8j2szo3379pJl9liq9MrI3AjzFvbt2ydZltUydMA1ozCaTPTEieMpALiAgABaaS8hz/PIzc2lgiAoNBpN1unTp1IaVNsGpGPHjpID70lJSThz9lwdaSTTlGHewuZNGyXL9uhhrrTjiBvry8o0KdeuXk0HoMzMzKSenp4Ayle6w9PTU7QsHtVeTUpKaDBNGxhnJzW6dOkqWW7DP/8AkBeQytxMYtJVnDx5UrJcjx496kCbpkHc6bhrOr0+E4AiODiYLl68GIDFYH3wwQdo3749jEajCABnz529DDjehl72IOvfv79k2V9/XQnA8a6ZzK1ht8KqVasky7Zq1QotoyLtq1AT4tKliwmiKJYqlUpCKaVplvWOHGDeWJibmwtnZ2cRADl75kwC4HjeAnO9hw4bJln27NmzOB0nzxbKlMMeXiuWL5MsO2TIEACOF7+qMEN4HgBEUTQ5OTnR6GjzZBgHAL6+vigtLaWiKFIA6pOnTl0q02iLGkblhqdPn97w9fWVLPfll18AkL0smXL27T+ACzYU5x05cjQAx4tfsa5z9OiRiwA4juNoTEwM/fTTTwGU7yXEmDFjqLu7uwhAmZOdfe2C1FVuzQQKQCEIGH3XXZJlf1qxAnkFBQ7nmcrcDFvi8sH770uWdXV1xfDh0r385kJhUXHusWPHLgFwdnJyEn18fGhSUhIAi8Fau3Yt9u7dC47jRCcnJwKg4PCRww45vmFPtAcemCxZ1mAw4N133gHgeMNpmZuJO3MWmzdvkiw3duxYODmpHW44yDh58mRcWVlZMgCFn5+fuH//fnz//fcALAZr3rx5eOaZZxAdHU1N5l3QZO/evUcBx10MOXLECPj7S19l/L/PP0dqWro8LHRg2G//1KxZNslPmz4DgAMOB9matb17TwAo4TgOPM+Lc+bMwbPPPgvAYrDCwsLQtWtXcBxHLdWfXbZv236CpSd1NCjMF+/hadNtkn/s0UcBOK6xd3QIgNWr12D/fumLRYNDQjB82FD7K9UEYN1l//59xwAoOI4z8jxPlUolevXqBcBisABz6ov8/Hzq7e0tAlBlZWVePnjo8PH6V7vhYU+2WTY+ITdv3oQ/Vv0JQB4aOhocAUrLyvDoo4/YJP/UrKcAOJ53xSgoLMzcs2fPKQAuRqPRNG7cODEqKgp6vXm3oNVgxcTE4JFHHkFubq5ICKEAijZt2rgXcNxZr6jIFrh7zBibZB+aOgXJ11Mc9to5IsyjHjdunLW0uhQUCgWefvoZAI63nIGxbev2/WVlZUkcxyk8PDxMZ8+epYcOHbJm9uUAYM2aNVizZg1SUlJoly5dTEql0gjAedPGjfsBx/QSWNL/d9+TPssDmAPwI+4cDkAeGjoC7Cd+5913sW3rVpvaeOqp2fDwcHNIY8X6yIYN6/cAMAmCYHRychJLS0vx8ccf49133zUfB5QbrLZt22LQoEFUp9MZOY5zOXny5PFz8edPN9SXaAx06dQRI0aMsEn2woULmPfqqwAc0+g7EoQA587F4+233rJJnuM4vPnWmwAcdzio0xuK1q9fvweAO6XU4ObmJnIch5iYGHTs2BGAxWApFAooFAqcPn0alFLq6+trspTVzl35yy//Ao45LGRe1uf/+8LmNj5auBCnTsc55PVzFJh3MGnS/Ta38eqrr8Hby8shvSvGmjWrt+bn518ghCgNBoPpmWeeEf/77z/s3bsXu3fvBmAxWK1bt0br1q0RHByMzp07UxcXF1EURT0At19/XbkNgMlR+xsF0LpVLJ544kmb21j2w48AHNPoOwpHjh7DuXO2Zezw9vbBWxbPzBG9K2bwVyxfvhkAIYQY3N3dTQkJCdi6dSu2b9+O7du3AwAIveEKlZaWonv37ty1a9ecNBqNJ4DSfzdu+m30qJEjHbGYI2C+oFqtFoFBgSgsKJQs36tXLxw6dAiAYxbEbO5wBPj4k0/xyssv2SS/Zs1ajBs3FpQ6ZrCdI0BaWvrV0NCQYZRSjVKpLOnUqVOZ0Wg0VsxyQSnFTVUaXVxcMGHCBHHBggVGnucNJpPJ9MX/Pv9z9KiRIznimB1OpIBarcbatetx912jUVpaKkk+PT2jjjSTaSykpabaJDfrqafMxgqOaazYoGPJN0v+opSmEUK8CCHGtm3bijExMejdu3el4wUAOHXqlPUNnufRpk0b+Pr6isXFxTpKqdeWLVu2nb9wMb5N61Zt6+uLNCbYjTTojoHw8PCQbLCUDlwM01FQqVQ2yU2a9AAAxxwKAuYwSVmZpvibJUv+BuCuVCq1KpXKePnyZTEhIQEaTeW16xwADBo0yPoaMGAA9u7di5kzZ5p0Op2B4zgTgLxPPl70CzuBo8HG2LNnP400G+oQdurcCYBjPkEdhV43eAI1Zfq0h6E3GB166cuKFSv+zsvLOysIgloURcOgQYNMJSUlOHToEM6dO2d9AZYYVnp65UI5hBDMnj0bmzdvVhoMBjeDweBKCFGlpKRuDQ4OCne0YSFHgLi4M+jUqaNN8r//8Scm3X+vQw6nHQGOAMXFJfDx8ZZcaAIA5sx5AYsXf2oeFjrQPWIx0jQmJmbUlStXTllWJhTOnTtXt2DBgiqvxE1Bd8b27dvxxBNP8MnJyU4mk8mHUpr/+BNPPPvd0qXvOdKFZU++gQMHYu/evZLlY2NjcdFS3kk2WM0TAvPI491338NblrVUUklNS0dwUKBD3SMcAX76+ZdV0x5+aCYAL5VKlefl5VXi6upqHDx4MNRqdaXjv/jiC7PBeu+99yp9wPM8goKC8O+//5J169apOI5zMxgMrpRSPjEp6b/IFi0iHeXCcgQ4evQYeva0Lb/2xo2bMGrUSIe6ER0RjgBGown+/n7Iz8+XLD/76afx1ZdfOoyXxRGAArrwsLDhKSkpiUqlkur1+oJRo0ZpAgMD6eHDhyGKYiWZ8+fPm2NYZWVllV7FxcXIysrCI488Ql1dXY0KhUJnKVCR++wzzyxmJ2zusO+4aNFHNsn37t0bo0aNtKNGMo0VCkAQeCz6+BOb5P/v++9RWFTsEDsi2Hf84IMFP6akpMQpFAonnuc1AIw8z9Pdu3cjISEBSUlJlV6AZUhIbhFJb9++PQRB4M6ePavkOM7dYDB4UEpL9+8/sLpv3z69mrvXwBFzxd4Afz/cauh8O06cPIUunTvJ3pWDwB5wUS1bIikxUbL8N998i5kzn2z29wtHgPyCgix/P79hRqOxhOd5nclkKnjyySe1bdq0ETdt2lSlTdq0aZN5WcOyZVUnySeEwGAw0KefftpoMpm0PM87G41GOm3awx9cvnx5vSOsy/r9j99tMlbjxo1HF8vsoIxjIFJzZ1yyZAlGjZTuWS9fvgwzZz6J5tyvmB2a/dTsj41GYzrHcZ4ANO3btzdERETQzz77DOnp6bd0om4ZdGecOXMGkyZN4s6fP68khLhxHOdrMplyPvnk0w9ffPGFR5vr6lz2tBw8eDB27dolSVYhCLiWfB1BDhZElSm/b4YMHYqdO3ZIlk++noKw0JBme99wBNixc+fBoUOG3MdxnJsgCIV6vb6wW7du2g0bNoibN2+GINy0nh0AMHXq1OoNVlZWFl5//XX8/fffQlFRkRPHcV56vV4NgEtMTNoQGdmiZXO8uBwBsrKzERQYeFPwrzrmznsVCz9c4LBbLRwdjgCXLl9Bq9gYybJffvkVnn56drM0WBwBjCZRFxYaMjojIyNRoVBwoijmxcbGlqrVasOXX36Jfv363baNag0W44MPPiCvv/66SqVSuej1el9KaWm3bt37HTt29Heg+bmwHAF+/uUXPPzQQ5LkeJ5HZlY2fLy9mt01kakZzMsaMWIk/vtviyTZ0XfdhX83bADQvPoUIeZg+yOPPPr2smU/fksI8SWE5Dg7OxcFBQXpJk+eLALmNDu34q233jLHsG63epvjOLi5uaFbt240ICDAmJmZqeV5vpjjOJ/jx4/tnjfv1c8XLvzweUKaz3QsGz7v2bNHsuyYMWPg4+3YaUIcHRbLmjlrpmSDdejgQegNRigVVQ+LmiLE8lq7dt1/y5b9+CMAP47jCt3d3csopYaioiLxhx9+gKen523jxW+99ZbZw+J5vtqTTpgwAREREeTTTz8VVCqVi8lk8jIajS4Aijdv2fLTiDvvHNhcngjsCdmufXvES0wZ8ueff+Heeyc2q6ejjHQ4Auj0evj7+6OoUFqGj/0HDqJvn97N5h7iCJCSmprWIiLibpPJVCoIAhUEIU+r1ZZMmjTJsGLFCrGmezE5ABBFsdrXhg0bkJeXR8ePH2/S6XRaAKWWVMrK8ePGvZiekZHRnNZmZWRm4aLEir0KhRJDhjpmxROZm1EpldaS81I4fvxYHWjTMDCbMObuMc+YTKY8QRBUhJASrVarbdGihfHzzz+vsbECKhShqA6tVotly5YhNDRUbNu2rUEUxTKTyVTE87yTRqPJGTVq1GwApuZitE6fPgVzicaa07tPb3h7edaNQjJNCuYdDRsqvYLz6dPmrORNPdEAswUPP/zwa6dOnTzM87w3x3GFhJAyV1dXXZ8+fcQpU6bA19cXPj4+1b4AS3qZt99+u0YK6HQ6tGzZEteuXRNTU1N1ZWVlpYQQhclk8jl96tSRe8aOe3H9urWfN4d1JGfi4iTLsBmO5hLLk6k9ffr2lSxz9oy56DpB051lZsbqww8Xfvfzzz//TAgJIIQUAijR6/Xarl27is899xwtKSmR1K4AwJqetSZcv34dJpOJGo1G07Zt27SU0hJCiEAICfhn/brVs59+2u/rr76a31SNFnuqXbBsWJZCt27dADTdm0zG/rRp0wY+Pj7Izc2tsUxCQgK0Oj3UqqaZR431oeUrflrz2muvfgjATxCEUkJIMQCtm5ub8Z133hFZcVQp1HhIyGBVov38/MSwsDCj0WjUCIJQzPN8CQD/JV9//d1777//DdA09xsyla8mXZUs27GDvLJdpjJOahU6dZJ2X+Tk5ODq1at1o1Adw1mWL6z/55+tM6ZPmw/AQ6FQGHieLzKZTGVBQUH6YcOGiXfeeadN7ds0d9q9e3e8//77WLp0qfjzzz/rMzMzy0RR5BQKhWAwGPzefOONRSqVWvnKyy892lQ9rZTU65KOD/D3R4vIFnWjjEyTJjomBjskrnpPTU1B61axdaRR3cAclPX/bNg69p57ngOg4HmeEEIKOI4rFUVRFxYWZiooKKDvvfceWrZsKan9Bx980GywZs+eLUlQrVYjLS0NHMfRzp07m/bv368rKyvjdDqdIAgCZzQafea+8vIHPMeRF1984ZGmZrTy8guQmiItR3d4ixbNau2MTO2h1Dw8im4ZLVk2OTm5DjSqO5ixWrd+/bZxY8c+B0CpUCh4ALl6vb5Er9frJk+ebJo4cSK99957sXPnTsnnsBqsJUuW2KTkXXfdhZdffpleu3bNeO7cOS3P8wQAEQTB22g0+rz00osLSkqKS956661nm5LRyszIhNRgoC03pUzzhsI8PIqMipQsyxZzN4UF2cxYrV69etPEiRNfAaDkeV4QRTGP47hitVqt6dy5s+H7778XXVxcIIoiioqKbDtXbRTt3bs3PD09ERkZSR977DGjXq/XGo3GYkEQ8gVBMALwffvttxc/OXPWmxW/WGOnpFSasQKAsPAwAHLAXeZmwsLCJcuUFEu/BxsC1qc/++yzFRMnTnwBgEIQBIHjuDyVSlVkMBjK+vTpYxw/frw4ZcoUnDhxAqWlpVCpVJJfgCWGxYoUSiU6Ohocx2HJkiU4d+6cuHv3bkN8fDwBzKlpeJ73MplMwd8t/XZlUmJCxt9///2Jm5ube2PPqpidnSVZxsPDA0Dj/l4yDYOnp5dkmYzMxl8ajhmrOXPmLPj8889/BODN87wIIE8QhCKNRlM2YsQIw/Dhw8UffvgB58+fx7p162w+n7UuoS2rcW/Ez88PS5cuFd9//339li1bqFqtZtt+qMlkCtq6deuuLl27Tvn7r78WdOrUqQNpxENEg8EoWSYgILAONJFpDnh5ecLV1VVSmMGWYhb1BTNUhUVF+ZMfeGDepk2btgEIEARBx3FcvsFgKAJQFhkZqf/ss8/E9evX0/Pnz9vn3HZpBeYsBf3798eiRYvEHj16GDiOK+N5vghAgSAIhRzHBSRcuXK1W7duj/64bNkqoPEOEW25WZydnetAE5nmgEqlgpOTtPuD3YONrYuwPrt7z54jHTt0fHDTpk27AAQLgqChlOYZjcYiZ2fnsuDgYP2UKVPEqKgoOn78eEyePNk+57dLKxVYu3YtnnvuOTEkJMSg0+nKnJycigghBYSQPEEQ3E0mE3n0kUfefPyJJ17TanVFHGl8hquwoECyjNMNFT5kZBhKpVJyoVVb7sG6pGI//eCDD74ZdMcdM5OTr6XxPB9gcUjyBUEoUiqVpZ07d9YPHjzYtGfPHpqamorY2FhMnDjRPnrYpZUKnDhxAv3798cPP/wgDh8+3FhSUlJGKS1SKBT5lNJcnucpAP//+/77v9u1azfl340btwKWBWeNxHDZMlT18PS0ux4yzQMntQru7m4NrYbNMEN17ty5+DvuuOOx119//TMAao7jXADkEkLyOY4r1Ol0ZQEBAYbZs2ebpk2bhiNHjiAvLw8Abqp9arMudmmlAk5OTjCZTBgwYABmzZolzpgxw6hQKDSiKBYLglAAII/n+WKe5wMTExNS777rrucfffTR+VlZWakEjcPbssVwFkpMISLjOGi0OhQXF0sTagTx3QpeleH999//pn379tP37NlziBASLAiCgRCSKwhCviiKxVqtVtOhQwf9vHnzTJMnT8bgwYPh4uICo1F6PPi2Otm1NZhnB3U6HcrKyjBkyBAsXbpUnDFjhlGv12v1en0xx3GFHMflE0LyFAqFGoDvjz/+uLp169bTFi9evAKWjA8Nabg8PT0ky2g0mjrQRKY5oNfrodFoJcm423AP2ouK/W/9uvWb27fv8NAbb7zxOcxLFrwIIQUmkymPEFKg1+uLnZycyvr376+fN2+eOHPmTABAfn4+DAbDbTOI2kKdLM3W6XTWIDSlFLNmzaL5+fmm3bt369LS0kSVSmUURdEIwMBxnCshJCA/P7/0xRdfXLhy5cr/XnjxxfunPPjgWHbR6ns2UamUvum0qEj2sGSqRqfTQaMpkyTD7sH6vPUrOgkHDx46+MH77//x78Z/d8BsJ4J5ni+jlJZwHFcCoMTZ2VnbuXNnfXh4uGny5Ml09OjRVnmj0XjLyje10tHuLaJyXmZCCFJSUvDQQw/RXbt2mT788EO9TqcrMxgMRQqFIp/n+TwAuTzPg+O44BMnTlyYOmXK/IED73jsjz9WbQAgMotfX15XTTKw3khmVmYdaCLTHMjOzkZpaakkGYVCUUfaVIbc0Lf27d9/8J4x97zYt2+fZy3GypfneWdCSD4hJFepVOYbjcZCo9FYWlRUpPP19TWGh4fftGyhLowVUEcG60acnZ1BKcXff/+NwsJC8b777jP26NFDU1ZWVmzZGJnPcVwugHxCiBOAgL1795x44IFJ87p37z59xYoVq8rKygqB8otblwH6AP8AyTLpaeagYmOIwck0LjIypC8CDQ4KrgNNyrH2I/OfxtWrV2+dMGHCCwP693/mnw3//AfAjed5T47jiiyGKlehUBRoNJqi8PDwshdeeEH//vvvmwoKCvDrr7/C39+/TvVl1MtuXVEUERgYiLvuugseHh7IzMwUV61aJX755Zfi0aNHTYIgGEwmk06pVOpMJpNGFEVnAM6iKHodP348fvr06cdfe+21X++///7+kx54YHDvXr26EZQbLXsPGb28vSXLXDgvLZ2yjONw8aL0e8PLS/rq+Oq48WGafD0lYdUfv+/8+eefd8bFxZ0DIALw5TjORCktAVCmUChK9Xp9mdFo1HIcp+vTp4+xY8eO4gMPPEB79OiB1NRUXL582aZiwzZ9h3o5C8yBRwDo1asXrl+/jsjISGzfvl186aWXDC4uLhqO40oopQUA8imleYSQPKVSWWgJzAempaVlff7558v69O79dK9evR5duHDh/507d+4sUP60sNewMSQkBAEB0rysuLg4m1bIyzRf2L14Ju6MZNnwiAgAtdvqVVW/yMzMSvnll1/WTpgw4eXo6JaPvfzyy5/HxcVdAuDD87wXx3ElljWTuZTSPJ1OV0ApLQageemll/S7d+82de/enf79998AzMF1QRDqzWDVez4UrVaLsrIyUErh5uaGnj170oyMDFNubq547tw5Y2ZmpsHJyUlXUlKiIYRoADhxHOdECFERQgKMRiOOHDkSd+TIkSOvvvrqin79+rUePnx4twEDB3bp07tPrJOT2qsqoyXFC1OrlIhq2RKZmTWPS+Xl5eL4iRPo3atnzU8k4xDs2iU9lUqrVq0kHX+bB7X+xMmTF/bs3n1y27Ztp3ft2nW+tLQ0DebRoCchJIDjOB0hpIhSqgGg5Xm+jOM4ncFg0AYGBhrHjh1rvPvuu8Vly5bhvffeQ+/eva3DXHvPAlZHgyRw4jjOWk05NzcX7du3h5ubGw0PDzcWFhaKGzduNFJKdUajUatWqzWiKKpFUVQDUPM8r6KUOgHwEEVR3L9//+n9+/cfBuDk7x8Q2rdvnxYdOnRo3a9//9jWrVqHRUSEhwMQpHpeMdExOHjggCSZNatXo3evnk0iJYhM/XDy1GlckFh9yd3dHdHR5nRFhEjbnpOTm5d69uyZ1NOnTl86efLElb17915JTEy8BqAIAA/ADYAfz/MGADpRFHWUUi3HcRpKqU6pVGq1Wq0egDE2NtY6/Bs0aBAef/xxJCUloXfv3pK+jz1p8IxzlFIUFRXBaDSibdu2yMvLE4uLi8WAgADThg0bDMXFxXqTyaQRBEFJKVWJoqgmhKgopSpBEJSiKKoAuIqiyGVlZWatXbs2ae3atf8BcFKr1R7h4eFBbdu2C45tFRsSGhLi37FTpyAXF9eAyMgWHj7e3h4AnKrSa/KDD+Knn1ZI+i5r167BRx8tRMX4moxjY0t2ghEjR8LF2XxbVnEbGUrLNAUJCVeKSkpKchMSEtLOx8fnZGRkXD9+/Hj69evXU/Pz8/MAlFnEnQE4CYLgSyk1iqJo4DiulOM4nSiKWgA6SqlOrVbrKaX6kpIS4+DBg01TpkwRx4wZQx9//HEsXrwYgwYNgoeHB3x8fKzORkPQ4AaLodPpwHEcYmJioFQqkZycLL788svi+vXrxby8PENpaanu6tWrWgBlarVaqdfrlRzHqTiOU1JKlYIgKERRVABw5ThOMBqNnFarNVy6dOnypUuX4gHoYP4BnQA4eXt7uwUEBHqq1So3L08v5+jYGA8PDw83JycnVxdnZ6SkpkYCkFRk8NKlS3Tb9h05LSLCdaJI+dtbLZbeTRrmSiq0wl81a49SevNUM0uJyeQpbrC0t2rzxveppSlyi7+rOt+N56zqXLSCyG2u1U3tVqdvzZB+rc3vU0rBc4QCoJs2/usHQNLCvqzMzIuLFi3aq9VqeY1WW1JaWlqalJhYkJGeUaLRakrz8/Lz09LTigBoAWgA6AGoLOdRwWKkeJ43UUpNAEoshsqgUCh0oijqAOh5ntdTSg2iKBpVKpUxIiLCRCmlH330EY2IiIC/v3+dLP6sDY3GYHEcB4PBAIVCgaysLBQVFaF169bIy8sTk5KSxLy8PJOvr68hLS2NT0tLEwAIoigKSqVSAUApiqKC4zgFpVQBQMFxnIIQwhNCeFEUlYQQN5PJxK48zcvLK8zLy8sBYAQg7ti5g8J8x4kwu88eAHZb/q0pZPiwoe8D2AuARe1r0uNv9d6tuN2xVfWw28lW9Tejul5a3bkaA/V9rdl7esvrVwBhNTwXAGD37t1Ldu/evRxAC5RXeucsLwGAAubhnRrmGC8lhIgAjJRSAwANx3HWxdmW4Z+e53mDwWAwiKJooJQaXVxcjN26dTN5eHjQoKAgsV27djhx4gS8vLwQHx9vXaogCI3GTDQegwWYn8gmkwmEECiVSqSkpCAwMBB79uxBixYt6CuvvEIXL15MBw4caExLS+OPHj3KCYLAFRcXC7w5273ADBXMP6pACBEs6Vp5hULBm0wmHgBPCOEopTwhREHMrgARRZFY8BVFMZlS+i+l9D4JX0EL4DoAE8xPPqByebkK7kz5176hjYrH3k6uNlR0aSp2yFu1f+PxN76HGrxfsS1U+Kyq71mdLjeeryK1udY1Of+tqPg9APODMB/AZQBSkqVlcBx3muO4dpa4LQVACTF7bJRSSggxEUIMlFIRgInjOJPJZDIRQow8z5tEUTQAMCqVSgPP8ya9Xm/ked6g1WpNAEwtW7YU+/btK4aFhYnp6el45ZVXEBcXh8LCQqSkpECn09m0eLo+aFQGqyKW5H/Q6XSglILjOLi6usLd3Z2OGjUK9913n3H79u3YuXMnOXr0qOHUqVOkuLiYg/nJw4wSz/M8TynleZ7nRVHkOY7jRVHkOI7jKaUcewHgzPcCYf86A1jMcdxyQggxmUzUYsyYioRSCkopYS4zpdQIoIjjOBdRFPWkfCxD2Xdg340QQmj5XDCB+aYkoijCcnNap4orDq0qTliwz9jfFT6zNs/OKYoiOI4D05mdg+loMpkoYH6amkwmiKJIOI6jN+jM5JluhOd5ys5f8fta/gWllFY4b8U2mA5WXQkhlb5Pxe/NrkVFfdj3szxorMavEV1rF0rpO5Z7Cew4ixzleZ6IokjZ8YQQSggpo5QWAlARQrSi+WBKzTexyWKkRItHZWL/8jxvMhqNJo7jjIIgiIQQk06nY0NCMTY2Vhw2bJjo7e0Nk8lE77nnHsTHxyM+Ph5FRUXIy8uDVqut1yUKttBoDVZF2I1SUlICo9GItLQ0ODk5oX///igoKKCpqammwMBAtG/fHpmZmdzVq1dx/vx5rrCwkAQFBXEXLlzg9Ho9x/M8x/M8RwjhCCGcwWAgADhitmycQqHgDAYDUSgUBIBAKdWaTKYkjuPACmxUuDGJKIoQBAGiKBKYi28Qk8nkZjGClHVABrvZBUGA0Wis2OGs//I8D0opTCaT9SnHOrPFkIDnedbRSMUOBMAqX9E4WNJVW68jz/MQRdF6fubVVtRFEAQqiiLLGmvVl30n1mbF9yq2xWDHVNxbZumcMBqN1uEG68gV278x7sbzvLV9ZlgrfteKMjde64rfux6uNbXowPE8n2GZiWPXkbJrZTFCUCgUsBguypndJRdRFIsIISLHcZRSSlUqlWgymUSLjEgIEfV6PTXbXVF0dnY2qdVqGhYWJmo0GsrzvNi1a1eqVCqpm5sbvXbtGgYMGICJEydi4cKFuHLlCpKTk6FWq2EymezUU+ueJmGwboTdMPn5+cjIyMDFixcxYsQIjBkzBp07dxYPHz6MM2fOiJcvX8bJkydx5513kuTkZJKYmEhycnKITqcj2dnZhOM4YumUhFJK3N3dCQCSk5NDAMDFxQUajYZwHMe8KXAcR9giWEEQQAghlk5HLN5gLgDwPE9MJhNVKBTEsk8SGo3GukeMUgqFQgG9Xm81JiyOB5g3v7IbiT3x1Go1DAZDpaEzMxwVDaAgCNYOVsGoUsv3BACrfMXvwjq0wWBg3hdh5xIEweqVsM5cwXhQi/GHSqWyGkOTyQSj0Qie562d29IBCfs+Go0GgiBYDUtFL6vi9VAoFBQAUSgUoJRCr9dbrwszZAqFAoIgVHmtlUplvV5rdg0IIYQZKZ1OR9n9q1AoKKUUWq22ojtDTSYT1Gq1ThAEqtFowPM8dXZ2piUlJdTZ2Zl6eHhQQRCg0+lEb29v6unpSS3eMe3Vqxf27dsHhUJBL126hG7dumHUqFFo37493nzzTezevRsTJ06ETqeDIAjMUNamK9Y7TdJgMdhNo1arUVpaiuTkZERFRUGr1cLb2xu9evXCunXrMGzYMPrRRx/RmTNnQq/XY+rUqbh69SoSExNJUlISOnTogH///RdnzpwhXl5eGD16NCkqKkJycjIiIyORmZlJSkpK4ObmRgoKCmirVq1QXFyMoqIiUlZWhvz8fOh0OqjVaigUCmLxroinpyeSk5OtHZAZKKVSiXbt2iE3NxeEEOTk5MDLywseHh6spDktKCggHh4eyMvLQ0hICLRaLVxdXa3D5KKiInh6etKysjKi1+sRFRUFg8GA1NRUuLi4QKvVwtnZGcXFxVZXnxkIvV4PX19f6u7uTljHEkUReXl5tLS0lLi5ucFgMEAQBMTExFBRFElWVhbS09Ph6+uL4uJiuLu7w8fHByaTiWq1WoiiSPz8/HD58mUIgmA9d0hICIqLi62dXavVIisry2pUAgMDUVZWhrKyMrRq1Qrp6enIy8uDSqWCq6srQkNDaWpqKlGr1TAajTQ3N5cw3ZgRVKvV8PDwwPXr1yVfa0IIzc/Pv+lau7m5geM467X28vKipaWlVV5rjUYDd3d3FBUVQavVUqVSCRcXF5SVlUGn05GAgADq4+MDg8EALy8v8DyPtLQ0mp+fj8jISCgUCigUCnh6elKe55GamgqTyQQvLy+UlJRQX19f8DxPw8LCkJKSQo1GI+bPn4/FixcjJycHS5YswUcffQSFQoFz585ZUx3Fx8ejf//+SElJgSiKcHV1bdD+ag+sT1wZGRmZxs7/A1qcwMZDFETBAAAAAElFTkSuQmCC;imageBorder=none;" parent="1" vertex="1">
          <mxGeometry x="-224" y="377" width="100" height="100" as="geometry" />
        </mxCell>
        <mxCell id="tf7IQ7AN6h5D22W9n6xX-28" style="edgeStyle=orthogonalEdgeStyle;rounded=0;orthogonalLoop=1;jettySize=auto;html=1;entryX=0.5;entryY=0;entryDx=0;entryDy=0;" parent="1" source="tf7IQ7AN6h5D22W9n6xX-11" target="tf7IQ7AN6h5D22W9n6xX-18" edge="1">
          <mxGeometry relative="1" as="geometry" />
        </mxCell>
        <mxCell id="tf7IQ7AN6h5D22W9n6xX-31" value="Upload" style="edgeLabel;html=1;align=center;verticalAlign=middle;resizable=0;points=[];" parent="tf7IQ7AN6h5D22W9n6xX-28" vertex="1" connectable="0">
          <mxGeometry x="-0.3" relative="1" as="geometry">
            <mxPoint as="offset" />
          </mxGeometry>
        </mxCell>
        <mxCell id="dlwnouvvmCoLALotXaTM-6" style="edgeStyle=orthogonalEdgeStyle;rounded=0;orthogonalLoop=1;jettySize=auto;html=1;entryX=0.5;entryY=0;entryDx=0;entryDy=0;" edge="1" parent="1" source="tf7IQ7AN6h5D22W9n6xX-12" target="dlwnouvvmCoLALotXaTM-1">
          <mxGeometry relative="1" as="geometry" />
        </mxCell>
        <mxCell id="dlwnouvvmCoLALotXaTM-7" value="Split into" style="edgeLabel;html=1;align=center;verticalAlign=middle;resizable=0;points=[];" vertex="1" connectable="0" parent="dlwnouvvmCoLALotXaTM-6">
          <mxGeometry x="-0.2" relative="1" as="geometry">
            <mxPoint as="offset" />
          </mxGeometry>
        </mxCell>
        <mxCell id="tf7IQ7AN6h5D22W9n6xX-12" value="txt" style="rounded=1;whiteSpace=wrap;html=1;" parent="1" vertex="1">
          <mxGeometry x="-768" y="317" width="86" height="40" as="geometry" />
        </mxCell>
        <mxCell id="tf7IQ7AN6h5D22W9n6xX-29" style="edgeStyle=orthogonalEdgeStyle;rounded=0;orthogonalLoop=1;jettySize=auto;html=1;entryX=0.5;entryY=0;entryDx=0;entryDy=0;" parent="1" source="tf7IQ7AN6h5D22W9n6xX-18" target="tf7IQ7AN6h5D22W9n6xX-12" edge="1">
          <mxGeometry relative="1" as="geometry" />
        </mxCell>
        <mxCell id="tf7IQ7AN6h5D22W9n6xX-32" value="Convert to" style="edgeLabel;html=1;align=center;verticalAlign=middle;resizable=0;points=[];" parent="tf7IQ7AN6h5D22W9n6xX-29" vertex="1" connectable="0">
          <mxGeometry x="-0.3" y="1" relative="1" as="geometry">
            <mxPoint x="-1" y="1" as="offset" />
          </mxGeometry>
        </mxCell>
        <mxCell id="tf7IQ7AN6h5D22W9n6xX-18" value="files" style="rounded=1;whiteSpace=wrap;html=1;" parent="1" vertex="1">
          <mxGeometry x="-768" y="237" width="86" height="40" as="geometry" />
        </mxCell>
        <mxCell id="tf7IQ7AN6h5D22W9n6xX-41" value="Store" style="edgeStyle=orthogonalEdgeStyle;rounded=0;orthogonalLoop=1;jettySize=auto;html=1;entryX=0;entryY=0.5;entryDx=0;entryDy=0;exitX=1;exitY=0.5;exitDx=0;exitDy=0;" parent="1" source="tf7IQ7AN6h5D22W9n6xX-19" target="tf7IQ7AN6h5D22W9n6xX-1" edge="1">
          <mxGeometry relative="1" as="geometry">
            <mxPoint x="-604" y="457" as="sourcePoint" />
          </mxGeometry>
        </mxCell>
        <mxCell id="tf7IQ7AN6h5D22W9n6xX-19" value="vector embeddings" style="rounded=1;whiteSpace=wrap;html=1;" parent="1" vertex="1">
          <mxGeometry x="-768" y="477" width="86" height="40" as="geometry" />
        </mxCell>
        <mxCell id="tf7IQ7AN6h5D22W9n6xX-34" style="edgeStyle=orthogonalEdgeStyle;rounded=0;orthogonalLoop=1;jettySize=auto;html=1;entryX=0.5;entryY=0;entryDx=0;entryDy=0;" parent="1" source="tf7IQ7AN6h5D22W9n6xX-20" target="tf7IQ7AN6h5D22W9n6xX-23" edge="1">
          <mxGeometry relative="1" as="geometry" />
        </mxCell>
        <mxCell id="tf7IQ7AN6h5D22W9n6xX-35" value="Send" style="edgeLabel;html=1;align=center;verticalAlign=middle;resizable=0;points=[];" parent="tf7IQ7AN6h5D22W9n6xX-34" vertex="1" connectable="0">
          <mxGeometry x="-0.15" y="-1" relative="1" as="geometry">
            <mxPoint as="offset" />
          </mxGeometry>
        </mxCell>
        <mxCell id="tf7IQ7AN6h5D22W9n6xX-36" style="edgeStyle=orthogonalEdgeStyle;rounded=0;orthogonalLoop=1;jettySize=auto;html=1;entryX=0.5;entryY=0;entryDx=0;entryDy=0;" parent="1" source="tf7IQ7AN6h5D22W9n6xX-21" target="tf7IQ7AN6h5D22W9n6xX-22" edge="1">
          <mxGeometry relative="1" as="geometry" />
        </mxCell>
        <mxCell id="tf7IQ7AN6h5D22W9n6xX-37" value="Send" style="edgeLabel;html=1;align=center;verticalAlign=middle;resizable=0;points=[];" parent="tf7IQ7AN6h5D22W9n6xX-36" vertex="1" connectable="0">
          <mxGeometry x="-0.15" y="1" relative="1" as="geometry">
            <mxPoint x="-2" as="offset" />
          </mxGeometry>
        </mxCell>
        <mxCell id="dlwnouvvmCoLALotXaTM-11" value="Generate" style="edgeStyle=orthogonalEdgeStyle;rounded=0;orthogonalLoop=1;jettySize=auto;html=1;exitX=0.5;exitY=1;exitDx=0;exitDy=0;" edge="1" parent="1" source="tf7IQ7AN6h5D22W9n6xX-22" target="dlwnouvvmCoLALotXaTM-10">
          <mxGeometry relative="1" as="geometry" />
        </mxCell>
        <mxCell id="tf7IQ7AN6h5D22W9n6xX-22" value="prompt" style="rounded=1;whiteSpace=wrap;html=1;" parent="1" vertex="1">
          <mxGeometry x="-598" y="237" width="86" height="40" as="geometry" />
        </mxCell>
        <mxCell id="tf7IQ7AN6h5D22W9n6xX-52" style="edgeStyle=orthogonalEdgeStyle;rounded=0;orthogonalLoop=1;jettySize=auto;html=1;exitX=0.5;exitY=1;exitDx=0;exitDy=0;" parent="1" source="tf7IQ7AN6h5D22W9n6xX-23" target="tf7IQ7AN6h5D22W9n6xX-2" edge="1">
          <mxGeometry relative="1" as="geometry" />
        </mxCell>
        <mxCell id="tf7IQ7AN6h5D22W9n6xX-57" value="Generate" style="edgeLabel;html=1;align=center;verticalAlign=middle;resizable=0;points=[];" parent="tf7IQ7AN6h5D22W9n6xX-52" vertex="1" connectable="0">
          <mxGeometry x="-0.6618" y="1" relative="1" as="geometry">
            <mxPoint y="25" as="offset" />
          </mxGeometry>
        </mxCell>
        <mxCell id="tf7IQ7AN6h5D22W9n6xX-23" value="prompt" style="rounded=1;whiteSpace=wrap;html=1;" parent="1" vertex="1">
          <mxGeometry x="-217" y="237" width="86" height="40" as="geometry" />
        </mxCell>
        <mxCell id="tf7IQ7AN6h5D22W9n6xX-54" style="edgeStyle=orthogonalEdgeStyle;rounded=0;orthogonalLoop=1;jettySize=auto;html=1;dashed=1;exitX=0;exitY=0.5;exitDx=0;exitDy=0;entryX=1;entryY=0.5;entryDx=0;entryDy=0;" parent="1" source="tf7IQ7AN6h5D22W9n6xX-23" target="tf7IQ7AN6h5D22W9n6xX-25" edge="1">
          <mxGeometry relative="1" as="geometry">
            <mxPoint x="-270" y="227" as="targetPoint" />
          </mxGeometry>
        </mxCell>
        <mxCell id="tf7IQ7AN6h5D22W9n6xX-25" value="chat history" style="rounded=1;whiteSpace=wrap;html=1;" parent="1" vertex="1">
          <mxGeometry x="-407" y="217" width="86" height="40" as="geometry" />
        </mxCell>
        <mxCell id="tf7IQ7AN6h5D22W9n6xX-48" style="edgeStyle=orthogonalEdgeStyle;rounded=0;orthogonalLoop=1;jettySize=auto;html=1;entryX=0.25;entryY=1;entryDx=0;entryDy=0;" parent="1" source="tf7IQ7AN6h5D22W9n6xX-47" target="tf7IQ7AN6h5D22W9n6xX-25" edge="1">
          <mxGeometry relative="1" as="geometry" />
        </mxCell>
        <mxCell id="tf7IQ7AN6h5D22W9n6xX-47" value="response" style="rounded=1;whiteSpace=wrap;html=1;" parent="1" vertex="1">
          <mxGeometry x="-483" y="297" width="86" height="40" as="geometry" />
        </mxCell>
        <mxCell id="tf7IQ7AN6h5D22W9n6xX-50" style="edgeStyle=orthogonalEdgeStyle;rounded=0;orthogonalLoop=1;jettySize=auto;html=1;entryX=0.75;entryY=1;entryDx=0;entryDy=0;" parent="1" source="tf7IQ7AN6h5D22W9n6xX-49" target="tf7IQ7AN6h5D22W9n6xX-25" edge="1">
          <mxGeometry relative="1" as="geometry" />
        </mxCell>
        <mxCell id="tf7IQ7AN6h5D22W9n6xX-49" value="response" style="rounded=1;whiteSpace=wrap;html=1;" parent="1" vertex="1">
          <mxGeometry x="-330" y="297" width="86" height="40" as="geometry" />
        </mxCell>
        <mxCell id="tf7IQ7AN6h5D22W9n6xX-56" value="The last response can be sent as part of the chat prompt" style="text;html=1;align=center;verticalAlign=middle;whiteSpace=wrap;rounded=0;" parent="1" vertex="1">
          <mxGeometry x="-418" y="166" width="108" height="47" as="geometry" />
        </mxCell>
        <mxCell id="vwu_d-jKQCP9L85hydyf-4" value="" style="group" parent="1" vertex="1" connectable="0">
          <mxGeometry x="-780" y="137" width="98" height="60" as="geometry" />
        </mxCell>
        <mxCell id="tf7IQ7AN6h5D22W9n6xX-11" value="Index context from files" style="rounded=1;whiteSpace=wrap;html=1;fillColor=#dae8fc;strokeColor=#6c8ebf;" parent="vwu_d-jKQCP9L85hydyf-4" vertex="1">
          <mxGeometry x="12" y="20" width="86" height="40" as="geometry" />
        </mxCell>
        <mxCell id="tf7IQ7AN6h5D22W9n6xX-62" value="1" style="ellipse;whiteSpace=wrap;html=1;aspect=fixed;fillColor=#f5f5f5;strokeColor=#666666;fontStyle=1;fontSize=14;fontColor=#333333;" parent="vwu_d-jKQCP9L85hydyf-4" vertex="1">
          <mxGeometry width="25" height="25" as="geometry" />
        </mxCell>
        <mxCell id="vwu_d-jKQCP9L85hydyf-5" value="" style="group" parent="1" vertex="1" connectable="0">
          <mxGeometry x="-610" y="137" width="98" height="60" as="geometry" />
        </mxCell>
        <mxCell id="tf7IQ7AN6h5D22W9n6xX-21" value="Get context" style="rounded=1;whiteSpace=wrap;html=1;fillColor=#dae8fc;strokeColor=#6c8ebf;" parent="vwu_d-jKQCP9L85hydyf-5" vertex="1">
          <mxGeometry x="12" y="20" width="86" height="40" as="geometry" />
        </mxCell>
        <mxCell id="tf7IQ7AN6h5D22W9n6xX-63" value="2" style="ellipse;whiteSpace=wrap;html=1;aspect=fixed;fillColor=#f5f5f5;strokeColor=#666666;fontStyle=1;fontSize=14;fontColor=#333333;" parent="vwu_d-jKQCP9L85hydyf-5" vertex="1">
          <mxGeometry width="25" height="25" as="geometry" />
        </mxCell>
        <mxCell id="vwu_d-jKQCP9L85hydyf-6" value="" style="group" parent="1" vertex="1" connectable="0">
          <mxGeometry x="-230" y="137" width="99" height="60" as="geometry" />
        </mxCell>
        <mxCell id="tf7IQ7AN6h5D22W9n6xX-20" value="Chat" style="rounded=1;whiteSpace=wrap;html=1;fillColor=#dae8fc;strokeColor=#6c8ebf;" parent="vwu_d-jKQCP9L85hydyf-6" vertex="1">
          <mxGeometry x="13" y="20" width="86" height="40" as="geometry" />
        </mxCell>
        <mxCell id="tf7IQ7AN6h5D22W9n6xX-64" value="3" style="ellipse;whiteSpace=wrap;html=1;aspect=fixed;fillColor=#f5f5f5;strokeColor=#666666;fontStyle=1;fontSize=14;fontColor=#333333;" parent="vwu_d-jKQCP9L85hydyf-6" vertex="1">
          <mxGeometry width="25" height="25" as="geometry" />
        </mxCell>
        <mxCell id="vwu_d-jKQCP9L85hydyf-7" value="" style="group" parent="1" vertex="1" connectable="0">
          <mxGeometry x="-413" y="30" width="98" height="60" as="geometry" />
        </mxCell>
        <mxCell id="vwu_d-jKQCP9L85hydyf-8" value="Replay" style="rounded=1;whiteSpace=wrap;html=1;fillColor=#dae8fc;strokeColor=#6c8ebf;" parent="vwu_d-jKQCP9L85hydyf-7" vertex="1">
          <mxGeometry x="6" y="20" width="86" height="40" as="geometry" />
        </mxCell>
        <mxCell id="vwu_d-jKQCP9L85hydyf-9" value="4" style="ellipse;whiteSpace=wrap;html=1;aspect=fixed;fillColor=#f5f5f5;strokeColor=#666666;fontStyle=1;fontSize=14;fontColor=#333333;" parent="vwu_d-jKQCP9L85hydyf-7" vertex="1">
          <mxGeometry width="25" height="25" as="geometry" />
        </mxCell>
        <mxCell id="vwu_d-jKQCP9L85hydyf-10" value="TXT file" style="verticalLabelPosition=bottom;html=1;verticalAlign=top;align=center;strokeColor=#666666;fillColor=#f5f5f5;shape=mxgraph.azure.cloud_services_configuration_file;pointerEvents=1;fontColor=#333333;" parent="1" vertex="1">
          <mxGeometry x="-244.5" y="50" width="30" height="40" as="geometry" />
        </mxCell>
        <mxCell id="vwu_d-jKQCP9L85hydyf-13" style="edgeStyle=orthogonalEdgeStyle;rounded=0;orthogonalLoop=1;jettySize=auto;html=1;exitX=1;exitY=0.5;exitDx=0;exitDy=0;entryX=0;entryY=0.5;entryDx=0;entryDy=0;entryPerimeter=0;dashed=1;" parent="1" source="vwu_d-jKQCP9L85hydyf-8" target="vwu_d-jKQCP9L85hydyf-10" edge="1">
          <mxGeometry relative="1" as="geometry" />
        </mxCell>
        <mxCell id="vwu_d-jKQCP9L85hydyf-16" value="Read&lt;div&gt;prompts&lt;/div&gt;" style="edgeLabel;html=1;align=center;verticalAlign=middle;resizable=0;points=[];" parent="vwu_d-jKQCP9L85hydyf-13" vertex="1" connectable="0">
          <mxGeometry x="0.0809" relative="1" as="geometry">
            <mxPoint x="-4" y="-19" as="offset" />
          </mxGeometry>
        </mxCell>
        <mxCell id="vwu_d-jKQCP9L85hydyf-14" style="edgeStyle=orthogonalEdgeStyle;rounded=0;orthogonalLoop=1;jettySize=auto;html=1;exitX=0;exitY=0.5;exitDx=0;exitDy=0;entryX=0;entryY=0.5;entryDx=0;entryDy=0;dashed=1;" parent="1" source="vwu_d-jKQCP9L85hydyf-8" target="tf7IQ7AN6h5D22W9n6xX-25" edge="1">
          <mxGeometry relative="1" as="geometry">
            <Array as="points">
              <mxPoint x="-440" y="70" />
              <mxPoint x="-440" y="237" />
            </Array>
          </mxGeometry>
        </mxCell>
        <mxCell id="vwu_d-jKQCP9L85hydyf-21" value="Read&lt;div&gt;user&lt;br&gt;&lt;div&gt;prompts&lt;/div&gt;&lt;/div&gt;" style="edgeLabel;html=1;align=center;verticalAlign=middle;resizable=0;points=[];" parent="vwu_d-jKQCP9L85hydyf-14" vertex="1" connectable="0">
          <mxGeometry x="-0.2472" y="-1" relative="1" as="geometry">
            <mxPoint x="1" y="25" as="offset" />
          </mxGeometry>
        </mxCell>
        <mxCell id="dlwnouvvmCoLALotXaTM-8" style="edgeStyle=orthogonalEdgeStyle;rounded=0;orthogonalLoop=1;jettySize=auto;html=1;exitX=0.5;exitY=1;exitDx=0;exitDy=0;entryX=0.5;entryY=0;entryDx=0;entryDy=0;" edge="1" parent="1" source="dlwnouvvmCoLALotXaTM-1" target="tf7IQ7AN6h5D22W9n6xX-19">
          <mxGeometry relative="1" as="geometry" />
        </mxCell>
        <mxCell id="dlwnouvvmCoLALotXaTM-9" value="Generate" style="edgeLabel;html=1;align=center;verticalAlign=middle;resizable=0;points=[];" vertex="1" connectable="0" parent="dlwnouvvmCoLALotXaTM-8">
          <mxGeometry x="-0.2" y="2" relative="1" as="geometry">
            <mxPoint x="-3" as="offset" />
          </mxGeometry>
        </mxCell>
        <mxCell id="dlwnouvvmCoLALotXaTM-17" style="edgeStyle=orthogonalEdgeStyle;rounded=0;orthogonalLoop=1;jettySize=auto;html=1;entryX=0.5;entryY=0;entryDx=0;entryDy=0;jumpStyle=arc;" edge="1" parent="1" source="vwu_d-jKQCP9L85hydyf-8" target="tf7IQ7AN6h5D22W9n6xX-21">
          <mxGeometry relative="1" as="geometry">
            <Array as="points">
              <mxPoint x="-364" y="120" />
              <mxPoint x="-555" y="120" />
            </Array>
          </mxGeometry>
        </mxCell>
        <mxCell id="dlwnouvvmCoLALotXaTM-1" value="chunks" style="rounded=1;whiteSpace=wrap;html=1;" vertex="1" parent="1">
          <mxGeometry x="-768" y="397" width="86" height="40" as="geometry" />
        </mxCell>
        <mxCell id="dlwnouvvmCoLALotXaTM-12" style="edgeStyle=orthogonalEdgeStyle;rounded=0;orthogonalLoop=1;jettySize=auto;html=1;exitX=0.5;exitY=1;exitDx=0;exitDy=0;entryX=0.5;entryY=0;entryDx=0;entryDy=0;" edge="1" parent="1" source="dlwnouvvmCoLALotXaTM-10" target="tf7IQ7AN6h5D22W9n6xX-1">
          <mxGeometry relative="1" as="geometry" />
        </mxCell>
        <mxCell id="dlwnouvvmCoLALotXaTM-14" value="Query" style="edgeLabel;html=1;align=center;verticalAlign=middle;resizable=0;points=[];" vertex="1" connectable="0" parent="dlwnouvvmCoLALotXaTM-12">
          <mxGeometry x="0.15" y="1" relative="1" as="geometry">
            <mxPoint x="-2" y="-7" as="offset" />
          </mxGeometry>
        </mxCell>
        <mxCell id="dlwnouvvmCoLALotXaTM-10" value="vector embeddings" style="rounded=1;whiteSpace=wrap;html=1;" vertex="1" parent="1">
          <mxGeometry x="-598" y="317" width="86" height="40" as="geometry" />
        </mxCell>
        <mxCell id="vwu_d-jKQCP9L85hydyf-19" style="edgeStyle=orthogonalEdgeStyle;rounded=0;orthogonalLoop=1;jettySize=auto;html=1;entryX=0.5;entryY=0;entryDx=0;entryDy=0;exitX=0.5;exitY=1;exitDx=0;exitDy=0;" parent="1" source="vwu_d-jKQCP9L85hydyf-8" target="tf7IQ7AN6h5D22W9n6xX-20" edge="1">
          <mxGeometry relative="1" as="geometry">
            <Array as="points">
              <mxPoint x="-364" y="120" />
              <mxPoint x="-174" y="120" />
            </Array>
          </mxGeometry>
        </mxCell>
        <mxCell id="vwu_d-jKQCP9L85hydyf-20" value="For each prompt" style="edgeLabel;html=1;align=center;verticalAlign=middle;resizable=0;points=[];" parent="vwu_d-jKQCP9L85hydyf-19" vertex="1" connectable="0">
          <mxGeometry x="-0.8515" y="-1" relative="1" as="geometry">
            <mxPoint y="-5" as="offset" />
          </mxGeometry>
        </mxCell>
      </root>
    </mxGraphModel>
  </diagram>
</mxfile>
